G04 #@! TF.GenerationSoftware,KiCad,Pcbnew,(5.1.5)-3*
G04 #@! TF.CreationDate,2020-06-21T07:00:24-05:00*
G04 #@! TF.ProjectId,nrf52832_qfax-PcbDoc,6e726635-3238-4333-925f-716661782d50,rev?*
G04 #@! TF.SameCoordinates,Original*
G04 #@! TF.FileFunction,Legend,Bot*
G04 #@! TF.FilePolarity,Positive*
%FSLAX46Y46*%
G04 Gerber Fmt 4.6, Leading zero omitted, Abs format (unit mm)*
G04 Created by KiCad (PCBNEW (5.1.5)-3) date 2020-06-21 07:00:24*
%MOMM*%
%LPD*%
G04 APERTURE LIST*
%ADD10C,0.150000*%
%ADD11C,0.120000*%
G04 APERTURE END LIST*
D10*
X100012988Y-69024500D02*
G75*
G03X100012988Y-69024500I-4127988J0D01*
G01*
X109347488Y-71310500D02*
G75*
G03X109347488Y-71310500I-4127988J0D01*
G01*
D11*
X94072646Y-78428470D02*
G75*
G03X90736000Y-79415000I-1306646J-1716530D01*
G01*
X89296000Y-83365000D02*
X90736000Y-79415000D01*
X91376000Y-94535000D02*
X89296000Y-92455000D01*
X94876000Y-94535000D02*
X91376000Y-94535000D01*
X108776000Y-94535000D02*
X110856000Y-92455000D01*
X110856000Y-83365000D02*
X109416000Y-79415000D01*
X109401244Y-79406831D02*
G75*
G03X106076000Y-78445000I-2015244J-738169D01*
G01*
X89296000Y-92455000D02*
X89296000Y-89995000D01*
X89296000Y-83995000D02*
X89296000Y-83365000D01*
X110856000Y-92455000D02*
X110856000Y-89995000D01*
X110856000Y-83995000D02*
X110856000Y-83365000D01*
X108776000Y-94535000D02*
X105276000Y-94535000D01*
D10*
X100409333Y-97947380D02*
X100409333Y-98661666D01*
X100456952Y-98804523D01*
X100552190Y-98899761D01*
X100695047Y-98947380D01*
X100790285Y-98947380D01*
X99456952Y-97947380D02*
X99933142Y-97947380D01*
X99980761Y-98423571D01*
X99933142Y-98375952D01*
X99837904Y-98328333D01*
X99599809Y-98328333D01*
X99504571Y-98375952D01*
X99456952Y-98423571D01*
X99409333Y-98518809D01*
X99409333Y-98756904D01*
X99456952Y-98852142D01*
X99504571Y-98899761D01*
X99599809Y-98947380D01*
X99837904Y-98947380D01*
X99933142Y-98899761D01*
X99980761Y-98852142D01*
M02*
