G04 #@! TF.GenerationSoftware,KiCad,Pcbnew,(5.1.5)-3*
G04 #@! TF.CreationDate,2020-06-21T07:00:24-05:00*
G04 #@! TF.ProjectId,nrf52832_qfax-PcbDoc,6e726635-3238-4333-925f-716661782d50,rev?*
G04 #@! TF.SameCoordinates,Original*
G04 #@! TF.FileFunction,Legend,Top*
G04 #@! TF.FilePolarity,Positive*
%FSLAX46Y46*%
G04 Gerber Fmt 4.6, Leading zero omitted, Abs format (unit mm)*
G04 Created by KiCad (PCBNEW (5.1.5)-3) date 2020-06-21 07:00:24*
%MOMM*%
%LPD*%
G04 APERTURE LIST*
%ADD10C,0.250000*%
%ADD11C,0.152400*%
%ADD12C,0.200000*%
%ADD13C,0.100000*%
%ADD14C,0.062500*%
%ADD15C,0.120000*%
%ADD16C,0.150000*%
G04 APERTURE END LIST*
D10*
X87693547Y-66809928D02*
X88455452Y-66809928D01*
D11*
X95716540Y-74584130D02*
X95016540Y-74584130D01*
X95016540Y-74584130D02*
X95016540Y-75234130D01*
X104493070Y-74307620D02*
X103568070Y-74307620D01*
X95025780Y-72263900D02*
X95025780Y-72963900D01*
X104493070Y-73307620D02*
X103568070Y-73307620D01*
D12*
X106126660Y-69905620D02*
X106126660Y-71105620D01*
D11*
X103170940Y-74603150D02*
X102245940Y-74603150D01*
X102003780Y-67147300D02*
X101353780Y-67147300D01*
X93875950Y-73152740D02*
X93225950Y-73152740D01*
X95716540Y-75734130D02*
X95716540Y-76384130D01*
X94695750Y-70028540D02*
X94045750Y-70028540D01*
D12*
X104843060Y-74107620D02*
X104643060Y-74107620D01*
D11*
X105642980Y-72416300D02*
X105642980Y-73116300D01*
X95016540Y-75734130D02*
X95016540Y-76384130D01*
X95025780Y-72963900D02*
X94375780Y-72963900D01*
X93875780Y-72963900D02*
X93225780Y-72963900D01*
X95025780Y-72263900D02*
X94375780Y-72263900D01*
X93225780Y-72263900D02*
X93225780Y-72963900D01*
X93875780Y-72263900D02*
X93225780Y-72263900D01*
X95025950Y-73152740D02*
X94375950Y-73152740D01*
X103153780Y-66447300D02*
X102503780Y-66447300D01*
X95716540Y-74584130D02*
X95716540Y-75234130D01*
X93225950Y-73152740D02*
X93225950Y-73852740D01*
X105976580Y-67844300D02*
X105976580Y-68544300D01*
D12*
X107626660Y-69905620D02*
X107626660Y-71105620D01*
D11*
X106626580Y-67844300D02*
X105976580Y-67844300D01*
X107776580Y-67844300D02*
X107776580Y-68544300D01*
D12*
X102095940Y-74803140D02*
X101895940Y-74803140D01*
D11*
X101745940Y-74603150D02*
X100820940Y-74603150D01*
X95025950Y-73152740D02*
X95025950Y-73852740D01*
X95025950Y-73852740D02*
X94375950Y-73852740D01*
X93545750Y-70028540D02*
X92895750Y-70028540D01*
X107776580Y-68544300D02*
X107126580Y-68544300D01*
X107776580Y-67844300D02*
X107126580Y-67844300D01*
X95716540Y-76384130D02*
X95016540Y-76384130D01*
X105918060Y-74307620D02*
X104993060Y-74307620D01*
X105918060Y-73307620D02*
X104993060Y-73307620D01*
X92895750Y-70028540D02*
X92895750Y-70728540D01*
X103153780Y-66447300D02*
X103153780Y-67147300D01*
X103153780Y-67147300D02*
X102503780Y-67147300D01*
X94695750Y-70028540D02*
X94695750Y-70728540D01*
D12*
X104843060Y-73507620D02*
X104643060Y-73507620D01*
D11*
X106626580Y-68544300D02*
X105976580Y-68544300D01*
X94695750Y-70728540D02*
X94045750Y-70728540D01*
X93545750Y-70728540D02*
X92895750Y-70728540D01*
X105918060Y-73307620D02*
X105918060Y-74307620D01*
X103568070Y-73307620D02*
X103568070Y-74307620D01*
X102003780Y-66447300D02*
X101353780Y-66447300D01*
X101353780Y-66447300D02*
X101353780Y-67147300D01*
X93875950Y-73852740D02*
X93225950Y-73852740D01*
X97138860Y-74584060D02*
X97138860Y-75234060D01*
X94827540Y-75734130D02*
X94827540Y-76384130D01*
X94827540Y-74584130D02*
X94827540Y-75234130D01*
X94827540Y-74584130D02*
X94127540Y-74584130D01*
X95568150Y-69986700D02*
X95568150Y-70636700D01*
X104492980Y-73116300D02*
X103842980Y-73116300D01*
X95568150Y-71136700D02*
X95568150Y-71786700D01*
X94868150Y-69986700D02*
X94868150Y-70636700D01*
X104492980Y-72416300D02*
X103842980Y-72416300D01*
X103842980Y-72416300D02*
X103842980Y-73116300D01*
X97138860Y-74584060D02*
X96438860Y-74584060D01*
X97138860Y-76384060D02*
X96438860Y-76384060D01*
X92859620Y-76364210D02*
X92539620Y-76364210D01*
X93779620Y-75424210D02*
X93779620Y-75544210D01*
X92859620Y-74604210D02*
X92539620Y-74604210D01*
X91619620Y-75424210D02*
X91619620Y-75544210D01*
X95568150Y-69986700D02*
X94868150Y-69986700D01*
X105642980Y-73116300D02*
X104992980Y-73116300D01*
X105642980Y-72416300D02*
X104992980Y-72416300D01*
X94868150Y-71136700D02*
X94868150Y-71786700D01*
X95568150Y-71786700D02*
X94868150Y-71786700D01*
X94827540Y-76384130D02*
X94127540Y-76384130D01*
X94127540Y-75734130D02*
X94127540Y-76384130D01*
X94127540Y-74584130D02*
X94127540Y-75234130D01*
D13*
X102503828Y-75955071D02*
X102536485Y-75922414D01*
X102634457Y-75889757D01*
X102699771Y-75889757D01*
X102797742Y-75922414D01*
X102863057Y-75987728D01*
X102895714Y-76053042D01*
X102928371Y-76183671D01*
X102928371Y-76281642D01*
X102895714Y-76412271D01*
X102863057Y-76477585D01*
X102797742Y-76542900D01*
X102699771Y-76575557D01*
X102634457Y-76575557D01*
X102536485Y-76542900D01*
X102503828Y-76510242D01*
X101850685Y-75889757D02*
X102242571Y-75889757D01*
X102046628Y-75889757D02*
X102046628Y-76575557D01*
X102111942Y-76477585D01*
X102177257Y-76412271D01*
X102242571Y-76379614D01*
X101426142Y-76575557D02*
X101360828Y-76575557D01*
X101295514Y-76542900D01*
X101262857Y-76510242D01*
X101230200Y-76444928D01*
X101197542Y-76314300D01*
X101197542Y-76151014D01*
X101230200Y-76020385D01*
X101262857Y-75955071D01*
X101295514Y-75922414D01*
X101360828Y-75889757D01*
X101426142Y-75889757D01*
X101491457Y-75922414D01*
X101524114Y-75955071D01*
X101556771Y-76020385D01*
X101589428Y-76151014D01*
X101589428Y-76314300D01*
X101556771Y-76444928D01*
X101524114Y-76510242D01*
X101491457Y-76542900D01*
X101426142Y-76575557D01*
X93883421Y-77741981D02*
X93850764Y-77709324D01*
X93818107Y-77611352D01*
X93818107Y-77546038D01*
X93850764Y-77448067D01*
X93916078Y-77382752D01*
X93981392Y-77350095D01*
X94112021Y-77317438D01*
X94209992Y-77317438D01*
X94340621Y-77350095D01*
X94405935Y-77382752D01*
X94471250Y-77448067D01*
X94503907Y-77546038D01*
X94503907Y-77611352D01*
X94471250Y-77709324D01*
X94438592Y-77741981D01*
X94438592Y-78003238D02*
X94471250Y-78035895D01*
X94503907Y-78101210D01*
X94503907Y-78264495D01*
X94471250Y-78329810D01*
X94438592Y-78362467D01*
X94373278Y-78395124D01*
X94307964Y-78395124D01*
X94209992Y-78362467D01*
X93818107Y-77970581D01*
X93818107Y-78395124D01*
X91861028Y-72025291D02*
X91893685Y-71992634D01*
X91991657Y-71959977D01*
X92056971Y-71959977D01*
X92154942Y-71992634D01*
X92220257Y-72057948D01*
X92252914Y-72123262D01*
X92285571Y-72253891D01*
X92285571Y-72351862D01*
X92252914Y-72482491D01*
X92220257Y-72547805D01*
X92154942Y-72613120D01*
X92056971Y-72645777D01*
X91991657Y-72645777D01*
X91893685Y-72613120D01*
X91861028Y-72580462D01*
X91273200Y-72645777D02*
X91403828Y-72645777D01*
X91469142Y-72613120D01*
X91501800Y-72580462D01*
X91567114Y-72482491D01*
X91599771Y-72351862D01*
X91599771Y-72090605D01*
X91567114Y-72025291D01*
X91534457Y-71992634D01*
X91469142Y-71959977D01*
X91338514Y-71959977D01*
X91273200Y-71992634D01*
X91240542Y-72025291D01*
X91207885Y-72090605D01*
X91207885Y-72253891D01*
X91240542Y-72319205D01*
X91273200Y-72351862D01*
X91338514Y-72384520D01*
X91469142Y-72384520D01*
X91534457Y-72351862D01*
X91567114Y-72319205D01*
X91599771Y-72253891D01*
X107177428Y-73211871D02*
X107210085Y-73179214D01*
X107308057Y-73146557D01*
X107373371Y-73146557D01*
X107471342Y-73179214D01*
X107536657Y-73244528D01*
X107569314Y-73309842D01*
X107601971Y-73440471D01*
X107601971Y-73538442D01*
X107569314Y-73669071D01*
X107536657Y-73734385D01*
X107471342Y-73799700D01*
X107373371Y-73832357D01*
X107308057Y-73832357D01*
X107210085Y-73799700D01*
X107177428Y-73767042D01*
X106850857Y-73146557D02*
X106720228Y-73146557D01*
X106654914Y-73179214D01*
X106622257Y-73211871D01*
X106556942Y-73309842D01*
X106524285Y-73440471D01*
X106524285Y-73701728D01*
X106556942Y-73767042D01*
X106589600Y-73799700D01*
X106654914Y-73832357D01*
X106785542Y-73832357D01*
X106850857Y-73799700D01*
X106883514Y-73767042D01*
X106916171Y-73701728D01*
X106916171Y-73538442D01*
X106883514Y-73473128D01*
X106850857Y-73440471D01*
X106785542Y-73407814D01*
X106654914Y-73407814D01*
X106589600Y-73440471D01*
X106556942Y-73473128D01*
X106524285Y-73538442D01*
X90346491Y-77247381D02*
X90313834Y-77214724D01*
X90281177Y-77116752D01*
X90281177Y-77051438D01*
X90313834Y-76953467D01*
X90379148Y-76888152D01*
X90444462Y-76855495D01*
X90575091Y-76822838D01*
X90673062Y-76822838D01*
X90803691Y-76855495D01*
X90869005Y-76888152D01*
X90934320Y-76953467D01*
X90966977Y-77051438D01*
X90966977Y-77116752D01*
X90934320Y-77214724D01*
X90901662Y-77247381D01*
X90281177Y-77900524D02*
X90281177Y-77508638D01*
X90281177Y-77704581D02*
X90966977Y-77704581D01*
X90869005Y-77639267D01*
X90803691Y-77573952D01*
X90771034Y-77508638D01*
X105062688Y-67619091D02*
X105095345Y-67586434D01*
X105193317Y-67553777D01*
X105258631Y-67553777D01*
X105356602Y-67586434D01*
X105421917Y-67651748D01*
X105454574Y-67717062D01*
X105487231Y-67847691D01*
X105487231Y-67945662D01*
X105454574Y-68076291D01*
X105421917Y-68141605D01*
X105356602Y-68206920D01*
X105258631Y-68239577D01*
X105193317Y-68239577D01*
X105095345Y-68206920D01*
X105062688Y-68174262D01*
X104409545Y-67553777D02*
X104801431Y-67553777D01*
X104605488Y-67553777D02*
X104605488Y-68239577D01*
X104670802Y-68141605D01*
X104736117Y-68076291D01*
X104801431Y-68043634D01*
X104148288Y-68174262D02*
X104115631Y-68206920D01*
X104050317Y-68239577D01*
X103887031Y-68239577D01*
X103821717Y-68206920D01*
X103789060Y-68174262D01*
X103756402Y-68108948D01*
X103756402Y-68043634D01*
X103789060Y-67945662D01*
X104180945Y-67553777D01*
X103756402Y-67553777D01*
X100490688Y-66196691D02*
X100523345Y-66164034D01*
X100621317Y-66131377D01*
X100686631Y-66131377D01*
X100784602Y-66164034D01*
X100849917Y-66229348D01*
X100882574Y-66294662D01*
X100915231Y-66425291D01*
X100915231Y-66523262D01*
X100882574Y-66653891D01*
X100849917Y-66719205D01*
X100784602Y-66784520D01*
X100686631Y-66817177D01*
X100621317Y-66817177D01*
X100523345Y-66784520D01*
X100490688Y-66751862D01*
X99870202Y-66817177D02*
X100196774Y-66817177D01*
X100229431Y-66490605D01*
X100196774Y-66523262D01*
X100131460Y-66555920D01*
X99968174Y-66555920D01*
X99902860Y-66523262D01*
X99870202Y-66490605D01*
X99837545Y-66425291D01*
X99837545Y-66262005D01*
X99870202Y-66196691D01*
X99902860Y-66164034D01*
X99968174Y-66131377D01*
X100131460Y-66131377D01*
X100196774Y-66164034D01*
X100229431Y-66196691D01*
X94624071Y-68717571D02*
X94591414Y-68684914D01*
X94558757Y-68586942D01*
X94558757Y-68521628D01*
X94591414Y-68423657D01*
X94656728Y-68358342D01*
X94722042Y-68325685D01*
X94852671Y-68293028D01*
X94950642Y-68293028D01*
X95081271Y-68325685D01*
X95146585Y-68358342D01*
X95211900Y-68423657D01*
X95244557Y-68521628D01*
X95244557Y-68586942D01*
X95211900Y-68684914D01*
X95179242Y-68717571D01*
X95244557Y-68946171D02*
X95244557Y-69370714D01*
X94983300Y-69142114D01*
X94983300Y-69240085D01*
X94950642Y-69305400D01*
X94917985Y-69338057D01*
X94852671Y-69370714D01*
X94689385Y-69370714D01*
X94624071Y-69338057D01*
X94591414Y-69305400D01*
X94558757Y-69240085D01*
X94558757Y-69044142D01*
X94591414Y-68978828D01*
X94624071Y-68946171D01*
X93704542Y-68295157D02*
X94031114Y-68295157D01*
X94031114Y-68980957D01*
X93116714Y-68295157D02*
X93508600Y-68295157D01*
X93312657Y-68295157D02*
X93312657Y-68980957D01*
X93377971Y-68882985D01*
X93443285Y-68817671D01*
X93508600Y-68785014D01*
X97247954Y-77716467D02*
X97217716Y-77686229D01*
X97187478Y-77595515D01*
X97187478Y-77535039D01*
X97217716Y-77444324D01*
X97278192Y-77383848D01*
X97338668Y-77353610D01*
X97459620Y-77323372D01*
X97550335Y-77323372D01*
X97671287Y-77353610D01*
X97731763Y-77383848D01*
X97792240Y-77444324D01*
X97822478Y-77535039D01*
X97822478Y-77595515D01*
X97792240Y-77686229D01*
X97762001Y-77716467D01*
X97187478Y-78321229D02*
X97187478Y-77958372D01*
X97187478Y-78139800D02*
X97822478Y-78139800D01*
X97731763Y-78079324D01*
X97671287Y-78018848D01*
X97641049Y-77958372D01*
X97610811Y-78865515D02*
X97187478Y-78865515D01*
X97852716Y-78714324D02*
X97399144Y-78563134D01*
X97399144Y-78956229D01*
X106898028Y-72170471D02*
X106930685Y-72137814D01*
X107028657Y-72105157D01*
X107093971Y-72105157D01*
X107191942Y-72137814D01*
X107257257Y-72203128D01*
X107289914Y-72268442D01*
X107322571Y-72399071D01*
X107322571Y-72497042D01*
X107289914Y-72627671D01*
X107257257Y-72692985D01*
X107191942Y-72758300D01*
X107093971Y-72790957D01*
X107028657Y-72790957D01*
X106930685Y-72758300D01*
X106898028Y-72725642D01*
X106310200Y-72562357D02*
X106310200Y-72105157D01*
X106473485Y-72823614D02*
X106636771Y-72333757D01*
X106212228Y-72333757D01*
X96231954Y-77739597D02*
X96201716Y-77709359D01*
X96171478Y-77618645D01*
X96171478Y-77558169D01*
X96201716Y-77467454D01*
X96262192Y-77406978D01*
X96322668Y-77376740D01*
X96443620Y-77346502D01*
X96534335Y-77346502D01*
X96655287Y-77376740D01*
X96715763Y-77406978D01*
X96776240Y-77467454D01*
X96806478Y-77558169D01*
X96806478Y-77618645D01*
X96776240Y-77709359D01*
X96746001Y-77739597D01*
X96171478Y-78344359D02*
X96171478Y-77981502D01*
X96171478Y-78162930D02*
X96806478Y-78162930D01*
X96715763Y-78102454D01*
X96655287Y-78041978D01*
X96625049Y-77981502D01*
X96806478Y-78556026D02*
X96806478Y-78949121D01*
X96564573Y-78737454D01*
X96564573Y-78828169D01*
X96534335Y-78888645D01*
X96504097Y-78918883D01*
X96443620Y-78949121D01*
X96292430Y-78949121D01*
X96231954Y-78918883D01*
X96201716Y-78888645D01*
X96171478Y-78828169D01*
X96171478Y-78646740D01*
X96201716Y-78586264D01*
X96231954Y-78556026D01*
X105494488Y-69280977D02*
X105037288Y-68595177D01*
X105037288Y-69280977D02*
X105494488Y-68595177D01*
X104808688Y-69215662D02*
X104776031Y-69248320D01*
X104710717Y-69280977D01*
X104547431Y-69280977D01*
X104482117Y-69248320D01*
X104449460Y-69215662D01*
X104416802Y-69150348D01*
X104416802Y-69085034D01*
X104449460Y-68987062D01*
X104841345Y-68595177D01*
X104416802Y-68595177D01*
X103967931Y-71077391D02*
X103935274Y-71044734D01*
X103902617Y-70946762D01*
X103902617Y-70881448D01*
X103935274Y-70783477D01*
X104000588Y-70718162D01*
X104065902Y-70685505D01*
X104196531Y-70652848D01*
X104294502Y-70652848D01*
X104425131Y-70685505D01*
X104490445Y-70718162D01*
X104555760Y-70783477D01*
X104588417Y-70881448D01*
X104588417Y-70946762D01*
X104555760Y-71044734D01*
X104523102Y-71077391D01*
X103902617Y-71730534D02*
X103902617Y-71338648D01*
X103902617Y-71534591D02*
X104588417Y-71534591D01*
X104490445Y-71469277D01*
X104425131Y-71403962D01*
X104392474Y-71338648D01*
X103902617Y-72383677D02*
X103902617Y-71991791D01*
X103902617Y-72187734D02*
X104588417Y-72187734D01*
X104490445Y-72122420D01*
X104425131Y-72057105D01*
X104392474Y-71991791D01*
X93019248Y-77078967D02*
X92562048Y-76393167D01*
X92562048Y-77078967D02*
X93019248Y-76393167D01*
X91941562Y-76393167D02*
X92333448Y-76393167D01*
X92137505Y-76393167D02*
X92137505Y-77078967D01*
X92202820Y-76980995D01*
X92268134Y-76915681D01*
X92333448Y-76883024D01*
X91861028Y-72914291D02*
X91893685Y-72881634D01*
X91991657Y-72848977D01*
X92056971Y-72848977D01*
X92154942Y-72881634D01*
X92220257Y-72946948D01*
X92252914Y-73012262D01*
X92285571Y-73142891D01*
X92285571Y-73240862D01*
X92252914Y-73371491D01*
X92220257Y-73436805D01*
X92154942Y-73502120D01*
X92056971Y-73534777D01*
X91991657Y-73534777D01*
X91893685Y-73502120D01*
X91861028Y-73469462D01*
X91632428Y-73534777D02*
X91175228Y-73534777D01*
X91469142Y-72848977D01*
X99485574Y-75021377D02*
X99485574Y-74466205D01*
X99452917Y-74400891D01*
X99420260Y-74368234D01*
X99354945Y-74335577D01*
X99224317Y-74335577D01*
X99159002Y-74368234D01*
X99126345Y-74400891D01*
X99093688Y-74466205D01*
X99093688Y-75021377D01*
X98407888Y-74335577D02*
X98799774Y-74335577D01*
X98603831Y-74335577D02*
X98603831Y-75021377D01*
X98669145Y-74923405D01*
X98734460Y-74858091D01*
X98799774Y-74825434D01*
X94772421Y-77741981D02*
X94739764Y-77709324D01*
X94707107Y-77611352D01*
X94707107Y-77546038D01*
X94739764Y-77448067D01*
X94805078Y-77382752D01*
X94870392Y-77350095D01*
X95001021Y-77317438D01*
X95098992Y-77317438D01*
X95229621Y-77350095D01*
X95294935Y-77382752D01*
X95360250Y-77448067D01*
X95392907Y-77546038D01*
X95392907Y-77611352D01*
X95360250Y-77709324D01*
X95327592Y-77741981D01*
X95098992Y-78133867D02*
X95131650Y-78068552D01*
X95164307Y-78035895D01*
X95229621Y-78003238D01*
X95262278Y-78003238D01*
X95327592Y-78035895D01*
X95360250Y-78068552D01*
X95392907Y-78133867D01*
X95392907Y-78264495D01*
X95360250Y-78329810D01*
X95327592Y-78362467D01*
X95262278Y-78395124D01*
X95229621Y-78395124D01*
X95164307Y-78362467D01*
X95131650Y-78329810D01*
X95098992Y-78264495D01*
X95098992Y-78133867D01*
X95066335Y-78068552D01*
X95033678Y-78035895D01*
X94968364Y-78003238D01*
X94837735Y-78003238D01*
X94772421Y-78035895D01*
X94739764Y-78068552D01*
X94707107Y-78133867D01*
X94707107Y-78264495D01*
X94739764Y-78329810D01*
X94772421Y-78362467D01*
X94837735Y-78395124D01*
X94968364Y-78395124D01*
X95033678Y-78362467D01*
X95066335Y-78329810D01*
X95098992Y-78264495D01*
D11*
X103170940Y-75603150D02*
X102245940Y-75603150D01*
D12*
X96909060Y-73886620D02*
X96409070Y-73886620D01*
X96909060Y-67886620D02*
X96409070Y-67886620D01*
D11*
X105804350Y-71593900D02*
X105804350Y-72243900D01*
X91271700Y-75734290D02*
X91271700Y-76384290D01*
X90571700Y-75734290D02*
X90571700Y-76384290D01*
X90571700Y-74584290D02*
X90571700Y-75234290D01*
X91271700Y-76384290D02*
X90571700Y-76384290D01*
D12*
X102409060Y-73386620D02*
X101909060Y-73886620D01*
X96409070Y-67886620D02*
X96409070Y-68386620D01*
D11*
X105104350Y-70443900D02*
X105104350Y-71093900D01*
X105104350Y-71593900D02*
X105104350Y-72243900D01*
X98104060Y-74586340D02*
X98104060Y-75236330D01*
X103170940Y-74603150D02*
X103170940Y-75603150D01*
D14*
X103434060Y-73086620D02*
G75*
G03X103434060Y-73086620I-125000J0D01*
G01*
D11*
X100820940Y-74603150D02*
X100820940Y-75603150D01*
X105804350Y-70443900D02*
X105804350Y-71093900D01*
X91271700Y-74584290D02*
X91271700Y-75234290D01*
D12*
X96409070Y-73386620D02*
X96409070Y-73886620D01*
D11*
X105804350Y-72243900D02*
X105104350Y-72243900D01*
X91271700Y-74584290D02*
X90571700Y-74584290D01*
X98104060Y-74586340D02*
X97404060Y-74586340D01*
X98104060Y-75736330D02*
X98104060Y-76386330D01*
X97404060Y-74586340D02*
X97404060Y-75236330D01*
X97404060Y-75736330D02*
X97404060Y-76386330D01*
D12*
X102409060Y-67886620D02*
X101909060Y-67886620D01*
D11*
X98104060Y-76386330D02*
X97404060Y-76386330D01*
X105804350Y-70443900D02*
X105104350Y-70443900D01*
D12*
X102095940Y-75403150D02*
X101895940Y-75403150D01*
X102409060Y-67886620D02*
X102409060Y-68386620D01*
D11*
X101745940Y-75603150D02*
X100820940Y-75603150D01*
X97138860Y-75734060D02*
X97138860Y-76384060D01*
X96438860Y-74584060D02*
X96438860Y-75234060D01*
X96438860Y-75734060D02*
X96438860Y-76384060D01*
D15*
X84774500Y-66408000D02*
X84774500Y-65278000D01*
X85534500Y-66408000D02*
X84774500Y-66408000D01*
X84839500Y-63700470D02*
X84839500Y-62878000D01*
X84839500Y-64518000D02*
X84839500Y-64315530D01*
X84971029Y-64518000D02*
X84839500Y-64518000D01*
X86241029Y-64518000D02*
X86097971Y-64518000D01*
X86294500Y-64714529D02*
X86294500Y-64571471D01*
X86294500Y-66408000D02*
X86294500Y-65841471D01*
X84839500Y-62878000D02*
X91309500Y-62878000D01*
X86294500Y-66408000D02*
X91309500Y-66408000D01*
X91309500Y-64970470D02*
X91309500Y-64315530D01*
X91309500Y-63700470D02*
X91309500Y-62878000D01*
X91309500Y-66408000D02*
X91309500Y-65585530D01*
X105062000Y-75948000D02*
X106172000Y-75948000D01*
X105062000Y-76708000D02*
X105062000Y-75948000D01*
X106735471Y-77468000D02*
X107282000Y-77468000D01*
X105062000Y-77468000D02*
X105608529Y-77468000D01*
X107282000Y-77468000D02*
X107282000Y-77403000D01*
X105062000Y-77468000D02*
X105062000Y-77403000D01*
X105062000Y-77468000D02*
X107282000Y-77468000D01*
X110457000Y-78357000D02*
X109347000Y-78357000D01*
X110457000Y-77597000D02*
X110457000Y-78357000D01*
X108783529Y-76837000D02*
X108237000Y-76837000D01*
X110457000Y-76837000D02*
X109910471Y-76837000D01*
X108237000Y-76837000D02*
X108237000Y-75632000D01*
X110457000Y-76837000D02*
X110457000Y-75632000D01*
X109039470Y-75632000D02*
X108237000Y-75632000D01*
X110457000Y-75632000D02*
X109654530Y-75632000D01*
X110330000Y-68705000D02*
X109220000Y-68705000D01*
X110330000Y-67945000D02*
X110330000Y-68705000D01*
X108656529Y-67185000D02*
X108110000Y-67185000D01*
X110330000Y-67185000D02*
X109783471Y-67185000D01*
X108110000Y-67185000D02*
X108110000Y-65980000D01*
X110330000Y-67185000D02*
X110330000Y-65980000D01*
X108912470Y-65980000D02*
X108110000Y-65980000D01*
X110330000Y-65980000D02*
X109527530Y-65980000D01*
X85284000Y-85090000D02*
X85544000Y-85090000D01*
X87824000Y-85090000D02*
X89594000Y-85090000D01*
X89594000Y-85090000D02*
X89594000Y-85470000D01*
X89594000Y-92710000D02*
X87824000Y-92710000D01*
X85544000Y-92710000D02*
X85284000Y-92710000D01*
X89594000Y-92710000D02*
X89594000Y-92330000D01*
X104835000Y-95471000D02*
X104835000Y-89950000D01*
X102825000Y-96050000D02*
X102825000Y-95471000D01*
X102175000Y-95471000D02*
X102825000Y-95471000D01*
X102175000Y-95471000D02*
X102175000Y-89950000D01*
X102175000Y-89950000D02*
X102885000Y-89950000D01*
X104125000Y-95471000D02*
X104835000Y-95471000D01*
X104125000Y-89950000D02*
X104835000Y-89950000D01*
X105675000Y-80305000D02*
X103875000Y-80305000D01*
X103875000Y-83525000D02*
X106325000Y-83525000D01*
X101305000Y-94880000D02*
X101305000Y-93080000D01*
X98085000Y-93080000D02*
X98085000Y-95530000D01*
X95350000Y-94780000D02*
X95350000Y-92495000D01*
X95350000Y-92495000D02*
X93880000Y-92495000D01*
X93880000Y-92495000D02*
X93880000Y-94780000D01*
X97077200Y-95465000D02*
X97077200Y-93180000D01*
X95607200Y-95465000D02*
X97077200Y-95465000D01*
X95607200Y-93180000D02*
X95607200Y-95465000D01*
X109825000Y-91745000D02*
X106475000Y-91745000D01*
X106475000Y-91745000D02*
X106475000Y-90695000D01*
X106475000Y-90695000D02*
X106285000Y-90695000D01*
X109825000Y-87325000D02*
X106475000Y-87325000D01*
X106475000Y-87325000D02*
X106475000Y-88375000D01*
X110995000Y-90675000D02*
X110995000Y-90325000D01*
X110995000Y-90325000D02*
X110495000Y-89925000D01*
X110495000Y-89925000D02*
X110495000Y-89145000D01*
X110495000Y-89145000D02*
X110995000Y-88745000D01*
X110995000Y-88745000D02*
X110995000Y-88395000D01*
X105431447Y-90385000D02*
X105785000Y-90135000D01*
X105785000Y-90135000D02*
X105431447Y-89885000D01*
X105431447Y-89885000D02*
X105431447Y-90385000D01*
X95230000Y-83185000D02*
X95230000Y-85135000D01*
X95230000Y-83185000D02*
X95230000Y-81235000D01*
X100350000Y-83185000D02*
X100350000Y-85135000D01*
X100350000Y-83185000D02*
X100350000Y-79735000D01*
X108155000Y-71890000D02*
X108155000Y-70390000D01*
X108155000Y-70390000D02*
X109355000Y-70390000D01*
X110355000Y-74010000D02*
X109355000Y-74010000D01*
X108605000Y-70770000D02*
X110975000Y-70770000D01*
D16*
X84291880Y-65976333D02*
X83815690Y-66309666D01*
X84291880Y-66547761D02*
X83291880Y-66547761D01*
X83291880Y-66166809D01*
X83339500Y-66071571D01*
X83387119Y-66023952D01*
X83482357Y-65976333D01*
X83625214Y-65976333D01*
X83720452Y-66023952D01*
X83768071Y-66071571D01*
X83815690Y-66166809D01*
X83815690Y-66547761D01*
X83768071Y-65547761D02*
X83768071Y-65214428D01*
X84291880Y-65071571D02*
X84291880Y-65547761D01*
X83291880Y-65547761D01*
X83291880Y-65071571D01*
X83768071Y-64309666D02*
X83768071Y-64643000D01*
X84291880Y-64643000D02*
X83291880Y-64643000D01*
X83291880Y-64166809D01*
X83291880Y-63643000D02*
X83529976Y-63643000D01*
X83434738Y-63881095D02*
X83529976Y-63643000D01*
X83434738Y-63404904D01*
X83720452Y-63785857D02*
X83529976Y-63643000D01*
X83720452Y-63500142D01*
X83291880Y-62881095D02*
X83529976Y-62881095D01*
X83434738Y-63119190D02*
X83529976Y-62881095D01*
X83434738Y-62643000D01*
X83720452Y-63023952D02*
X83529976Y-62881095D01*
X83720452Y-62738238D01*
X108537476Y-75255380D02*
X108537476Y-74255380D01*
X108870809Y-74969666D01*
X109204142Y-74255380D01*
X109204142Y-75255380D01*
X109632714Y-74350619D02*
X109680333Y-74303000D01*
X109775571Y-74255380D01*
X110013666Y-74255380D01*
X110108904Y-74303000D01*
X110156523Y-74350619D01*
X110204142Y-74445857D01*
X110204142Y-74541095D01*
X110156523Y-74683952D01*
X109585095Y-75255380D01*
X110204142Y-75255380D01*
X108410476Y-65730380D02*
X108410476Y-64730380D01*
X108743809Y-65444666D01*
X109077142Y-64730380D01*
X109077142Y-65730380D01*
X110077142Y-65730380D02*
X109505714Y-65730380D01*
X109791428Y-65730380D02*
X109791428Y-64730380D01*
X109696190Y-64873238D01*
X109600952Y-64968476D01*
X109505714Y-65016095D01*
X90636380Y-89233333D02*
X91350666Y-89233333D01*
X91493523Y-89280952D01*
X91588761Y-89376190D01*
X91636380Y-89519047D01*
X91636380Y-89614285D01*
X90731619Y-88804761D02*
X90684000Y-88757142D01*
X90636380Y-88661904D01*
X90636380Y-88423809D01*
X90684000Y-88328571D01*
X90731619Y-88280952D01*
X90826857Y-88233333D01*
X90922095Y-88233333D01*
X91064952Y-88280952D01*
X91636380Y-88852380D01*
X91636380Y-88233333D01*
X104036761Y-94043333D02*
X104084380Y-93900476D01*
X104084380Y-93662380D01*
X104036761Y-93567142D01*
X103989142Y-93519523D01*
X103893904Y-93471904D01*
X103798666Y-93471904D01*
X103703428Y-93519523D01*
X103655809Y-93567142D01*
X103608190Y-93662380D01*
X103560571Y-93852857D01*
X103512952Y-93948095D01*
X103465333Y-93995714D01*
X103370095Y-94043333D01*
X103274857Y-94043333D01*
X103179619Y-93995714D01*
X103132000Y-93948095D01*
X103084380Y-93852857D01*
X103084380Y-93614761D01*
X103132000Y-93471904D01*
X103084380Y-93138571D02*
X104084380Y-92900476D01*
X103370095Y-92710000D01*
X104084380Y-92519523D01*
X103084380Y-92281428D01*
X104084380Y-91376666D02*
X104084380Y-91948095D01*
X104084380Y-91662380D02*
X103084380Y-91662380D01*
X103227238Y-91757619D01*
X103322476Y-91852857D01*
X103370095Y-91948095D01*
X84466380Y-76304833D02*
X83990190Y-76638166D01*
X84466380Y-76876261D02*
X83466380Y-76876261D01*
X83466380Y-76495309D01*
X83514000Y-76400071D01*
X83561619Y-76352452D01*
X83656857Y-76304833D01*
X83799714Y-76304833D01*
X83894952Y-76352452D01*
X83942571Y-76400071D01*
X83990190Y-76495309D01*
X83990190Y-76876261D01*
X83942571Y-75876261D02*
X83942571Y-75542928D01*
X84466380Y-75400071D02*
X84466380Y-75876261D01*
X83466380Y-75876261D01*
X83466380Y-75400071D01*
X83942571Y-74638166D02*
X83942571Y-74971500D01*
X84466380Y-74971500D02*
X83466380Y-74971500D01*
X83466380Y-74495309D01*
X83466380Y-73971500D02*
X83704476Y-73971500D01*
X83609238Y-74209595D02*
X83704476Y-73971500D01*
X83609238Y-73733404D01*
X83894952Y-74114357D02*
X83704476Y-73971500D01*
X83894952Y-73828642D01*
X83466380Y-73209595D02*
X83704476Y-73209595D01*
X83609238Y-73447690D02*
X83704476Y-73209595D01*
X83609238Y-72971500D01*
X83894952Y-73352452D02*
X83704476Y-73209595D01*
X83894952Y-73066738D01*
X106934095Y-81240380D02*
X106934095Y-82049904D01*
X106981714Y-82145142D01*
X107029333Y-82192761D01*
X107124571Y-82240380D01*
X107315047Y-82240380D01*
X107410285Y-82192761D01*
X107457904Y-82145142D01*
X107505523Y-82049904D01*
X107505523Y-81240380D01*
X107934095Y-81335619D02*
X107981714Y-81288000D01*
X108076952Y-81240380D01*
X108315047Y-81240380D01*
X108410285Y-81288000D01*
X108457904Y-81335619D01*
X108505523Y-81430857D01*
X108505523Y-81526095D01*
X108457904Y-81668952D01*
X107886476Y-82240380D01*
X108505523Y-82240380D01*
X98933095Y-95972380D02*
X98933095Y-96781904D01*
X98980714Y-96877142D01*
X99028333Y-96924761D01*
X99123571Y-96972380D01*
X99314047Y-96972380D01*
X99409285Y-96924761D01*
X99456904Y-96877142D01*
X99504523Y-96781904D01*
X99504523Y-95972380D01*
X100409285Y-96305714D02*
X100409285Y-96972380D01*
X100171190Y-95924761D02*
X99933095Y-96639047D01*
X100552142Y-96639047D01*
X104132142Y-78589142D02*
X104084523Y-78636761D01*
X103941666Y-78684380D01*
X103846428Y-78684380D01*
X103703571Y-78636761D01*
X103608333Y-78541523D01*
X103560714Y-78446285D01*
X103513095Y-78255809D01*
X103513095Y-78112952D01*
X103560714Y-77922476D01*
X103608333Y-77827238D01*
X103703571Y-77732000D01*
X103846428Y-77684380D01*
X103941666Y-77684380D01*
X104084523Y-77732000D01*
X104132142Y-77779619D01*
X105084523Y-78684380D02*
X104513095Y-78684380D01*
X104798809Y-78684380D02*
X104798809Y-77684380D01*
X104703571Y-77827238D01*
X104608333Y-77922476D01*
X104513095Y-77970095D01*
X105989285Y-77684380D02*
X105513095Y-77684380D01*
X105465476Y-78160571D01*
X105513095Y-78112952D01*
X105608333Y-78065333D01*
X105846428Y-78065333D01*
X105941666Y-78112952D01*
X105989285Y-78160571D01*
X106036904Y-78255809D01*
X106036904Y-78493904D01*
X105989285Y-78589142D01*
X105941666Y-78636761D01*
X105846428Y-78684380D01*
X105608333Y-78684380D01*
X105513095Y-78636761D01*
X105465476Y-78589142D01*
X98147142Y-89542857D02*
X98194761Y-89590476D01*
X98242380Y-89733333D01*
X98242380Y-89828571D01*
X98194761Y-89971428D01*
X98099523Y-90066666D01*
X98004285Y-90114285D01*
X97813809Y-90161904D01*
X97670952Y-90161904D01*
X97480476Y-90114285D01*
X97385238Y-90066666D01*
X97290000Y-89971428D01*
X97242380Y-89828571D01*
X97242380Y-89733333D01*
X97290000Y-89590476D01*
X97337619Y-89542857D01*
X98242380Y-88590476D02*
X98242380Y-89161904D01*
X98242380Y-88876190D02*
X97242380Y-88876190D01*
X97385238Y-88971428D01*
X97480476Y-89066666D01*
X97528095Y-89161904D01*
X97242380Y-87733333D02*
X97242380Y-87923809D01*
X97290000Y-88019047D01*
X97337619Y-88066666D01*
X97480476Y-88161904D01*
X97670952Y-88209523D01*
X98051904Y-88209523D01*
X98147142Y-88161904D01*
X98194761Y-88114285D01*
X98242380Y-88019047D01*
X98242380Y-87828571D01*
X98194761Y-87733333D01*
X98147142Y-87685714D01*
X98051904Y-87638095D01*
X97813809Y-87638095D01*
X97718571Y-87685714D01*
X97670952Y-87733333D01*
X97623333Y-87828571D01*
X97623333Y-88019047D01*
X97670952Y-88114285D01*
X97718571Y-88161904D01*
X97813809Y-88209523D01*
X108053142Y-94622857D02*
X108100761Y-94670476D01*
X108148380Y-94813333D01*
X108148380Y-94908571D01*
X108100761Y-95051428D01*
X108005523Y-95146666D01*
X107910285Y-95194285D01*
X107719809Y-95241904D01*
X107576952Y-95241904D01*
X107386476Y-95194285D01*
X107291238Y-95146666D01*
X107196000Y-95051428D01*
X107148380Y-94908571D01*
X107148380Y-94813333D01*
X107196000Y-94670476D01*
X107243619Y-94622857D01*
X108148380Y-93670476D02*
X108148380Y-94241904D01*
X108148380Y-93956190D02*
X107148380Y-93956190D01*
X107291238Y-94051428D01*
X107386476Y-94146666D01*
X107434095Y-94241904D01*
X107148380Y-93337142D02*
X107148380Y-92670476D01*
X108148380Y-93099047D01*
X94003904Y-96972380D02*
X94003904Y-95972380D01*
X94242000Y-95972380D01*
X94384857Y-96020000D01*
X94480095Y-96115238D01*
X94527714Y-96210476D01*
X94575333Y-96400952D01*
X94575333Y-96543809D01*
X94527714Y-96734285D01*
X94480095Y-96829523D01*
X94384857Y-96924761D01*
X94242000Y-96972380D01*
X94003904Y-96972380D01*
X95527714Y-96972380D02*
X94956285Y-96972380D01*
X95242000Y-96972380D02*
X95242000Y-95972380D01*
X95146761Y-96115238D01*
X95051523Y-96210476D01*
X94956285Y-96258095D01*
X95781904Y-96972380D02*
X95781904Y-95972380D01*
X96020000Y-95972380D01*
X96162857Y-96020000D01*
X96258095Y-96115238D01*
X96305714Y-96210476D01*
X96353333Y-96400952D01*
X96353333Y-96543809D01*
X96305714Y-96734285D01*
X96258095Y-96829523D01*
X96162857Y-96924761D01*
X96020000Y-96972380D01*
X95781904Y-96972380D01*
X96734285Y-96067619D02*
X96781904Y-96020000D01*
X96877142Y-95972380D01*
X97115238Y-95972380D01*
X97210476Y-96020000D01*
X97258095Y-96067619D01*
X97305714Y-96162857D01*
X97305714Y-96258095D01*
X97258095Y-96400952D01*
X96686666Y-96972380D01*
X97305714Y-96972380D01*
X108418380Y-89995333D02*
X109132666Y-89995333D01*
X109275523Y-90042952D01*
X109370761Y-90138190D01*
X109418380Y-90281047D01*
X109418380Y-90376285D01*
X108418380Y-89614380D02*
X108418380Y-88995333D01*
X108799333Y-89328666D01*
X108799333Y-89185809D01*
X108846952Y-89090571D01*
X108894571Y-89042952D01*
X108989809Y-88995333D01*
X109227904Y-88995333D01*
X109323142Y-89042952D01*
X109370761Y-89090571D01*
X109418380Y-89185809D01*
X109418380Y-89471523D01*
X109370761Y-89566761D01*
X109323142Y-89614380D01*
X106513333Y-85034380D02*
X106180000Y-84558190D01*
X105941904Y-85034380D02*
X105941904Y-84034380D01*
X106322857Y-84034380D01*
X106418095Y-84082000D01*
X106465714Y-84129619D01*
X106513333Y-84224857D01*
X106513333Y-84367714D01*
X106465714Y-84462952D01*
X106418095Y-84510571D01*
X106322857Y-84558190D01*
X105941904Y-84558190D01*
X107465714Y-85034380D02*
X106894285Y-85034380D01*
X107180000Y-85034380D02*
X107180000Y-84034380D01*
X107084761Y-84177238D01*
X106989523Y-84272476D01*
X106894285Y-84320095D01*
X102052380Y-85256666D02*
X101576190Y-85590000D01*
X102052380Y-85828095D02*
X101052380Y-85828095D01*
X101052380Y-85447142D01*
X101100000Y-85351904D01*
X101147619Y-85304285D01*
X101242857Y-85256666D01*
X101385714Y-85256666D01*
X101480952Y-85304285D01*
X101528571Y-85351904D01*
X101576190Y-85447142D01*
X101576190Y-85828095D01*
X101147619Y-84875714D02*
X101100000Y-84828095D01*
X101052380Y-84732857D01*
X101052380Y-84494761D01*
X101100000Y-84399523D01*
X101147619Y-84351904D01*
X101242857Y-84304285D01*
X101338095Y-84304285D01*
X101480952Y-84351904D01*
X102052380Y-84923333D01*
X102052380Y-84304285D01*
X93162380Y-83351666D02*
X92686190Y-83685000D01*
X93162380Y-83923095D02*
X92162380Y-83923095D01*
X92162380Y-83542142D01*
X92210000Y-83446904D01*
X92257619Y-83399285D01*
X92352857Y-83351666D01*
X92495714Y-83351666D01*
X92590952Y-83399285D01*
X92638571Y-83446904D01*
X92686190Y-83542142D01*
X92686190Y-83923095D01*
X92162380Y-83018333D02*
X92162380Y-82399285D01*
X92543333Y-82732619D01*
X92543333Y-82589761D01*
X92590952Y-82494523D01*
X92638571Y-82446904D01*
X92733809Y-82399285D01*
X92971904Y-82399285D01*
X93067142Y-82446904D01*
X93114761Y-82494523D01*
X93162380Y-82589761D01*
X93162380Y-82875476D01*
X93114761Y-82970714D01*
X93067142Y-83018333D01*
X93897380Y-91606666D02*
X93421190Y-91940000D01*
X93897380Y-92178095D02*
X92897380Y-92178095D01*
X92897380Y-91797142D01*
X92945000Y-91701904D01*
X92992619Y-91654285D01*
X93087857Y-91606666D01*
X93230714Y-91606666D01*
X93325952Y-91654285D01*
X93373571Y-91701904D01*
X93421190Y-91797142D01*
X93421190Y-92178095D01*
X93230714Y-90749523D02*
X93897380Y-90749523D01*
X92849761Y-90987619D02*
X93564047Y-91225714D01*
X93564047Y-90606666D01*
X98242380Y-91606666D02*
X97766190Y-91940000D01*
X98242380Y-92178095D02*
X97242380Y-92178095D01*
X97242380Y-91797142D01*
X97290000Y-91701904D01*
X97337619Y-91654285D01*
X97432857Y-91606666D01*
X97575714Y-91606666D01*
X97670952Y-91654285D01*
X97718571Y-91701904D01*
X97766190Y-91797142D01*
X97766190Y-92178095D01*
X97242380Y-90701904D02*
X97242380Y-91178095D01*
X97718571Y-91225714D01*
X97670952Y-91178095D01*
X97623333Y-91082857D01*
X97623333Y-90844761D01*
X97670952Y-90749523D01*
X97718571Y-90701904D01*
X97813809Y-90654285D01*
X98051904Y-90654285D01*
X98147142Y-90701904D01*
X98194761Y-90749523D01*
X98242380Y-90844761D01*
X98242380Y-91082857D01*
X98194761Y-91178095D01*
X98147142Y-91225714D01*
X93797380Y-89066666D02*
X93321190Y-89400000D01*
X93797380Y-89638095D02*
X92797380Y-89638095D01*
X92797380Y-89257142D01*
X92845000Y-89161904D01*
X92892619Y-89114285D01*
X92987857Y-89066666D01*
X93130714Y-89066666D01*
X93225952Y-89114285D01*
X93273571Y-89161904D01*
X93321190Y-89257142D01*
X93321190Y-89638095D01*
X92797380Y-88209523D02*
X92797380Y-88400000D01*
X92845000Y-88495238D01*
X92892619Y-88542857D01*
X93035476Y-88638095D01*
X93225952Y-88685714D01*
X93606904Y-88685714D01*
X93702142Y-88638095D01*
X93749761Y-88590476D01*
X93797380Y-88495238D01*
X93797380Y-88304761D01*
X93749761Y-88209523D01*
X93702142Y-88161904D01*
X93606904Y-88114285D01*
X93368809Y-88114285D01*
X93273571Y-88161904D01*
X93225952Y-88209523D01*
X93178333Y-88304761D01*
X93178333Y-88495238D01*
X93225952Y-88590476D01*
X93273571Y-88638095D01*
X93368809Y-88685714D01*
X97496380Y-83946904D02*
X98305904Y-83946904D01*
X98401142Y-83899285D01*
X98448761Y-83851666D01*
X98496380Y-83756428D01*
X98496380Y-83565952D01*
X98448761Y-83470714D01*
X98401142Y-83423095D01*
X98305904Y-83375476D01*
X97496380Y-83375476D01*
X97496380Y-82994523D02*
X97496380Y-82375476D01*
X97877333Y-82708809D01*
X97877333Y-82565952D01*
X97924952Y-82470714D01*
X97972571Y-82423095D01*
X98067809Y-82375476D01*
X98305904Y-82375476D01*
X98401142Y-82423095D01*
X98448761Y-82470714D01*
X98496380Y-82565952D01*
X98496380Y-82851666D01*
X98448761Y-82946904D01*
X98401142Y-82994523D01*
X109093095Y-69048380D02*
X109093095Y-69857904D01*
X109140714Y-69953142D01*
X109188333Y-70000761D01*
X109283571Y-70048380D01*
X109474047Y-70048380D01*
X109569285Y-70000761D01*
X109616904Y-69953142D01*
X109664523Y-69857904D01*
X109664523Y-69048380D01*
X110616904Y-69048380D02*
X110140714Y-69048380D01*
X110093095Y-69524571D01*
X110140714Y-69476952D01*
X110235952Y-69429333D01*
X110474047Y-69429333D01*
X110569285Y-69476952D01*
X110616904Y-69524571D01*
X110664523Y-69619809D01*
X110664523Y-69857904D01*
X110616904Y-69953142D01*
X110569285Y-70000761D01*
X110474047Y-70048380D01*
X110235952Y-70048380D01*
X110140714Y-70000761D01*
X110093095Y-69953142D01*
X110736142Y-77827142D02*
X110688523Y-77874761D01*
X110545666Y-77922380D01*
X110450428Y-77922380D01*
X110307571Y-77874761D01*
X110212333Y-77779523D01*
X110164714Y-77684285D01*
X110117095Y-77493809D01*
X110117095Y-77350952D01*
X110164714Y-77160476D01*
X110212333Y-77065238D01*
X110307571Y-76970000D01*
X110450428Y-76922380D01*
X110545666Y-76922380D01*
X110688523Y-76970000D01*
X110736142Y-77017619D01*
X111688523Y-77922380D02*
X111117095Y-77922380D01*
X111402809Y-77922380D02*
X111402809Y-76922380D01*
X111307571Y-77065238D01*
X111212333Y-77160476D01*
X111117095Y-77208095D01*
X112259952Y-77350952D02*
X112164714Y-77303333D01*
X112117095Y-77255714D01*
X112069476Y-77160476D01*
X112069476Y-77112857D01*
X112117095Y-77017619D01*
X112164714Y-76970000D01*
X112259952Y-76922380D01*
X112450428Y-76922380D01*
X112545666Y-76970000D01*
X112593285Y-77017619D01*
X112640904Y-77112857D01*
X112640904Y-77160476D01*
X112593285Y-77255714D01*
X112545666Y-77303333D01*
X112450428Y-77350952D01*
X112259952Y-77350952D01*
X112164714Y-77398571D01*
X112117095Y-77446190D01*
X112069476Y-77541428D01*
X112069476Y-77731904D01*
X112117095Y-77827142D01*
X112164714Y-77874761D01*
X112259952Y-77922380D01*
X112450428Y-77922380D01*
X112545666Y-77874761D01*
X112593285Y-77827142D01*
X112640904Y-77731904D01*
X112640904Y-77541428D01*
X112593285Y-77446190D01*
X112545666Y-77398571D01*
X112450428Y-77350952D01*
M02*
