G04 #@! TF.GenerationSoftware,KiCad,Pcbnew,(5.1.5)-3*
G04 #@! TF.CreationDate,2020-06-21T07:00:24-05:00*
G04 #@! TF.ProjectId,nrf52832_qfax-PcbDoc,6e726635-3238-4333-925f-716661782d50,rev?*
G04 #@! TF.SameCoordinates,Original*
G04 #@! TF.FileFunction,Copper,L2,Bot*
G04 #@! TF.FilePolarity,Positive*
%FSLAX46Y46*%
G04 Gerber Fmt 4.6, Leading zero omitted, Abs format (unit mm)*
G04 Created by KiCad (PCBNEW (5.1.5)-3) date 2020-06-21 07:00:24*
%MOMM*%
%LPD*%
G04 APERTURE LIST*
%ADD10O,1.000000X1.000000*%
%ADD11R,1.000000X1.000000*%
%ADD12C,17.800000*%
%ADD13R,1.270000X5.080000*%
%ADD14R,0.500000X0.900000*%
%ADD15C,0.889000*%
%ADD16C,0.609600*%
%ADD17C,0.660000*%
%ADD18C,0.254000*%
%ADD19C,0.381000*%
%ADD20C,0.150000*%
G04 APERTURE END LIST*
D10*
X90614500Y-64008000D03*
X90614500Y-65278000D03*
X89344500Y-64008000D03*
X89344500Y-65278000D03*
X88074500Y-64008000D03*
X88074500Y-65278000D03*
X86804500Y-64008000D03*
X86804500Y-65278000D03*
X85534500Y-64008000D03*
D11*
X85534500Y-65278000D03*
X106172000Y-76708000D03*
D10*
X109347000Y-76327000D03*
D11*
X109347000Y-77597000D03*
D10*
X109220000Y-66675000D03*
D11*
X109220000Y-67945000D03*
D12*
X100076000Y-86995000D03*
D13*
X111061000Y-86995000D03*
X89091000Y-86995000D03*
D14*
X90424000Y-68321500D03*
D15*
X100076000Y-83629500D03*
D16*
X93537820Y-77008210D03*
D15*
X91186000Y-84328000D03*
D16*
X90921620Y-74171410D03*
X96738140Y-76804950D03*
X103621540Y-75103150D03*
X91458860Y-66086020D03*
X107435460Y-76576220D03*
X106495660Y-70683420D03*
X97804940Y-76804950D03*
X107435460Y-65984420D03*
X90907660Y-69546820D03*
X91073860Y-78303420D03*
X96077740Y-78303550D03*
X100577460Y-78303420D03*
X107435460Y-74671220D03*
X104819260Y-76576220D03*
X107435460Y-78303420D03*
X106317860Y-73807620D03*
X107435460Y-67381420D03*
X94252860Y-66086020D03*
X93313060Y-69540420D03*
X90907660Y-71223220D03*
X91963020Y-74120610D03*
X94477540Y-76804950D03*
X95366540Y-76804950D03*
X92424060Y-68499020D03*
X93385270Y-71236220D03*
X92830460Y-72613820D03*
X106063860Y-72791620D03*
X92830460Y-73452020D03*
X104082660Y-78303420D03*
X102406260Y-67886620D03*
X102736460Y-65959020D03*
D17*
X97609070Y-69086620D03*
X97609070Y-70286620D03*
X101209060Y-72686620D03*
X97609070Y-72686620D03*
X98809070Y-71486620D03*
X101209060Y-69086620D03*
X101209060Y-70286620D03*
X100009070Y-70286620D03*
X97609070Y-71486620D03*
X100009070Y-71486620D03*
X101209060Y-71486620D03*
X100009070Y-72686620D03*
X98809070Y-69086620D03*
X98809070Y-70286620D03*
X100009070Y-69086620D03*
X98809070Y-72686620D03*
D16*
X100395740Y-74950750D03*
D15*
X93478250Y-90255500D03*
X93700410Y-95484410D03*
X96520000Y-83185000D03*
D16*
X96077820Y-74900010D03*
X104739070Y-74563620D03*
X101796660Y-65984420D03*
D15*
X110744000Y-80772000D03*
X109855000Y-70231000D03*
X92202000Y-63952499D03*
X109607897Y-74336040D03*
X93281500Y-65024000D03*
X97218500Y-64770000D03*
X109855000Y-83185000D03*
D18*
X93478250Y-90255500D02*
X93478250Y-95262250D01*
X93478250Y-95262250D02*
X93700410Y-95484410D01*
X97409000Y-84328000D02*
X100076000Y-86995000D01*
X91186000Y-84328000D02*
X97409000Y-84328000D01*
D19*
X103116180Y-67303930D02*
X103116180Y-70702820D01*
X104739070Y-72325710D02*
X104739070Y-74563620D01*
D18*
X96738410Y-74239420D02*
X96077820Y-74900010D01*
X104414880Y-74239420D02*
X96738410Y-74239420D01*
D19*
X104739070Y-72325710D02*
X103116180Y-70702820D01*
D18*
X104739070Y-74563620D02*
X104414880Y-74239420D01*
D19*
X103116180Y-67303930D02*
X101796660Y-65984420D01*
D18*
X110578900Y-80606900D02*
X110744000Y-80772000D01*
X109855000Y-70231000D02*
X110744000Y-71120000D01*
X101796660Y-65984420D02*
X100213140Y-64400900D01*
X92830617Y-63952499D02*
X92838616Y-63944500D01*
X92202000Y-63952499D02*
X92830617Y-63952499D01*
X99756740Y-63944500D02*
X100213140Y-64400900D01*
X92838616Y-63944500D02*
X99756740Y-63944500D01*
X109855000Y-70231000D02*
X110000911Y-70231000D01*
X109648937Y-74295000D02*
X109607897Y-74336040D01*
X110744000Y-74295000D02*
X109648937Y-74295000D01*
X110744000Y-74295000D02*
X110744000Y-80772000D01*
X110744000Y-71120000D02*
X110744000Y-74295000D01*
D20*
X86034499Y-63508001D02*
X85534500Y-64008000D01*
X86261901Y-63280599D02*
X86034499Y-63508001D01*
X91180712Y-63280599D02*
X86261901Y-63280599D01*
X91530099Y-63629986D02*
X91180712Y-63280599D01*
X91530099Y-64275012D02*
X91530099Y-63629986D01*
X92279087Y-65024000D02*
X91530099Y-64275012D01*
X93281500Y-65024000D02*
X92279087Y-65024000D01*
D18*
X94606874Y-64770000D02*
X97218500Y-64770000D01*
X93628973Y-65747901D02*
X94606874Y-64770000D01*
X90614500Y-64008000D02*
X92354401Y-65747901D01*
X92354401Y-65747901D02*
X93628973Y-65747901D01*
X109855000Y-83813617D02*
X109855000Y-83185000D01*
X109855000Y-86678000D02*
X109855000Y-83813617D01*
X110172000Y-86995000D02*
X109855000Y-86678000D01*
X111061000Y-86995000D02*
X110172000Y-86995000D01*
G36*
X112507560Y-87107560D02*
G01*
X112027179Y-87107560D01*
X112014000Y-87106262D01*
X112000822Y-87107560D01*
X112000821Y-87107560D01*
X111976751Y-87109931D01*
X111976751Y-84455000D01*
X111971356Y-84400228D01*
X111955380Y-84347561D01*
X111929436Y-84299023D01*
X111894521Y-84256479D01*
X111851977Y-84221564D01*
X111803439Y-84195620D01*
X111750772Y-84179644D01*
X111696000Y-84174249D01*
X110426000Y-84174249D01*
X110371228Y-84179644D01*
X110318561Y-84195620D01*
X110270023Y-84221564D01*
X110261400Y-84228641D01*
X110261400Y-83784080D01*
X110316460Y-83747290D01*
X110417290Y-83646460D01*
X110496512Y-83527895D01*
X110551081Y-83396154D01*
X110578900Y-83256298D01*
X110578900Y-83113702D01*
X110551081Y-82973846D01*
X110496512Y-82842105D01*
X110417290Y-82723540D01*
X110316460Y-82622710D01*
X110197895Y-82543488D01*
X110066154Y-82488919D01*
X109926298Y-82461100D01*
X109783702Y-82461100D01*
X109643846Y-82488919D01*
X109512105Y-82543488D01*
X109393540Y-82622710D01*
X109292710Y-82723540D01*
X109213488Y-82842105D01*
X109158919Y-82973846D01*
X109131100Y-83113702D01*
X109131100Y-83256298D01*
X109158919Y-83396154D01*
X109213488Y-83527895D01*
X109292710Y-83646460D01*
X109393540Y-83747290D01*
X109448600Y-83784080D01*
X109448600Y-83833576D01*
X109448601Y-83833586D01*
X109448600Y-86658047D01*
X109446635Y-86678000D01*
X109448600Y-86697953D01*
X109448600Y-86697959D01*
X109454481Y-86757667D01*
X109477719Y-86834274D01*
X109515456Y-86904875D01*
X109566242Y-86966758D01*
X109581746Y-86979482D01*
X109870522Y-87268259D01*
X109883242Y-87283758D01*
X109898740Y-87296477D01*
X109898745Y-87296482D01*
X109919746Y-87313717D01*
X109945124Y-87334544D01*
X109998027Y-87362821D01*
X110015725Y-87372281D01*
X110092331Y-87395519D01*
X110099604Y-87396235D01*
X110145249Y-87400731D01*
X110145249Y-89535000D01*
X110150644Y-89589772D01*
X110166620Y-89642439D01*
X110192564Y-89690977D01*
X110227479Y-89733521D01*
X110270023Y-89768436D01*
X110318561Y-89794380D01*
X110371228Y-89810356D01*
X110426000Y-89815751D01*
X111696000Y-89815751D01*
X111745560Y-89810869D01*
X111745560Y-91680821D01*
X111744262Y-91694000D01*
X111749445Y-91746623D01*
X111764795Y-91797224D01*
X111789721Y-91843858D01*
X111823266Y-91884734D01*
X111864142Y-91918279D01*
X111910776Y-91943205D01*
X111961377Y-91958555D01*
X112014000Y-91963738D01*
X112027178Y-91962440D01*
X112507560Y-91962440D01*
X112507561Y-97267560D01*
X84850440Y-97267560D01*
X84850440Y-94987141D01*
X85679100Y-94987141D01*
X85679100Y-95258859D01*
X85732110Y-95525356D01*
X85836092Y-95776391D01*
X85987050Y-96002316D01*
X86179184Y-96194450D01*
X86405109Y-96345408D01*
X86656144Y-96449390D01*
X86922641Y-96502400D01*
X87194359Y-96502400D01*
X87460856Y-96449390D01*
X87711891Y-96345408D01*
X87937816Y-96194450D01*
X88129950Y-96002316D01*
X88280908Y-95776391D01*
X88384890Y-95525356D01*
X88437900Y-95258859D01*
X88437900Y-94987141D01*
X88384890Y-94720644D01*
X88280908Y-94469609D01*
X88129950Y-94243684D01*
X87937816Y-94051550D01*
X87711891Y-93900592D01*
X87460856Y-93796610D01*
X87194359Y-93743600D01*
X86922641Y-93743600D01*
X86656144Y-93796610D01*
X86405109Y-93900592D01*
X86179184Y-94051550D01*
X85987050Y-94243684D01*
X85836092Y-94469609D01*
X85732110Y-94720644D01*
X85679100Y-94987141D01*
X84850440Y-94987141D01*
X84850440Y-84455000D01*
X88175249Y-84455000D01*
X88175249Y-89535000D01*
X88180644Y-89589772D01*
X88196620Y-89642439D01*
X88222564Y-89690977D01*
X88257479Y-89733521D01*
X88300023Y-89768436D01*
X88348561Y-89794380D01*
X88401228Y-89810356D01*
X88456000Y-89815751D01*
X89726000Y-89815751D01*
X89780772Y-89810356D01*
X89833439Y-89794380D01*
X89881977Y-89768436D01*
X89924521Y-89733521D01*
X89959436Y-89690977D01*
X89985380Y-89642439D01*
X90001356Y-89589772D01*
X90006751Y-89535000D01*
X90006751Y-84455000D01*
X90001356Y-84400228D01*
X89985380Y-84347561D01*
X89959436Y-84299023D01*
X89924521Y-84256479D01*
X89881977Y-84221564D01*
X89833439Y-84195620D01*
X89780772Y-84179644D01*
X89726000Y-84174249D01*
X88456000Y-84174249D01*
X88401228Y-84179644D01*
X88348561Y-84195620D01*
X88300023Y-84221564D01*
X88257479Y-84256479D01*
X88222564Y-84299023D01*
X88196620Y-84347561D01*
X88180644Y-84400228D01*
X88175249Y-84455000D01*
X84850440Y-84455000D01*
X84850440Y-82931000D01*
X90678000Y-82931000D01*
X90702776Y-82928560D01*
X90726601Y-82921333D01*
X90748557Y-82909597D01*
X90767803Y-82893803D01*
X90783597Y-82874557D01*
X90795333Y-82852601D01*
X90802560Y-82828776D01*
X90805000Y-82804000D01*
X90805000Y-78678077D01*
X90802560Y-78653301D01*
X90795333Y-78629476D01*
X90783597Y-78607520D01*
X90767803Y-78588274D01*
X90754134Y-78577057D01*
X90754134Y-76208000D01*
X105391249Y-76208000D01*
X105391249Y-77208000D01*
X105396644Y-77262772D01*
X105412620Y-77315439D01*
X105438564Y-77363977D01*
X105473479Y-77406521D01*
X105516023Y-77441436D01*
X105564561Y-77467380D01*
X105617228Y-77483356D01*
X105672000Y-77488751D01*
X106672000Y-77488751D01*
X106726772Y-77483356D01*
X106779439Y-77467380D01*
X106827977Y-77441436D01*
X106870521Y-77406521D01*
X106905436Y-77363977D01*
X106931380Y-77315439D01*
X106947356Y-77262772D01*
X106952751Y-77208000D01*
X106952751Y-77097000D01*
X108566249Y-77097000D01*
X108566249Y-78097000D01*
X108571644Y-78151772D01*
X108587620Y-78204439D01*
X108613564Y-78252977D01*
X108648479Y-78295521D01*
X108691023Y-78330436D01*
X108739561Y-78356380D01*
X108792228Y-78372356D01*
X108847000Y-78377751D01*
X109847000Y-78377751D01*
X109901772Y-78372356D01*
X109954439Y-78356380D01*
X110002977Y-78330436D01*
X110045521Y-78295521D01*
X110080436Y-78252977D01*
X110106380Y-78204439D01*
X110122356Y-78151772D01*
X110127751Y-78097000D01*
X110127751Y-77097000D01*
X110122356Y-77042228D01*
X110106380Y-76989561D01*
X110080436Y-76941023D01*
X110045521Y-76898479D01*
X110002977Y-76863564D01*
X109954439Y-76837620D01*
X109942299Y-76833938D01*
X109952399Y-76823838D01*
X110037695Y-76696184D01*
X110096448Y-76554343D01*
X110126400Y-76403764D01*
X110126400Y-76250236D01*
X110096448Y-76099657D01*
X110037695Y-75957816D01*
X109952399Y-75830162D01*
X109843838Y-75721601D01*
X109716184Y-75636305D01*
X109574343Y-75577552D01*
X109423764Y-75547600D01*
X109270236Y-75547600D01*
X109119657Y-75577552D01*
X108977816Y-75636305D01*
X108850162Y-75721601D01*
X108741601Y-75830162D01*
X108656305Y-75957816D01*
X108597552Y-76099657D01*
X108567600Y-76250236D01*
X108567600Y-76403764D01*
X108597552Y-76554343D01*
X108656305Y-76696184D01*
X108741601Y-76823838D01*
X108751701Y-76833938D01*
X108739561Y-76837620D01*
X108691023Y-76863564D01*
X108648479Y-76898479D01*
X108613564Y-76941023D01*
X108587620Y-76989561D01*
X108571644Y-77042228D01*
X108566249Y-77097000D01*
X106952751Y-77097000D01*
X106952751Y-76208000D01*
X106947356Y-76153228D01*
X106931380Y-76100561D01*
X106905436Y-76052023D01*
X106870521Y-76009479D01*
X106827977Y-75974564D01*
X106779439Y-75948620D01*
X106726772Y-75932644D01*
X106672000Y-75927249D01*
X105672000Y-75927249D01*
X105617228Y-75932644D01*
X105564561Y-75948620D01*
X105516023Y-75974564D01*
X105473479Y-76009479D01*
X105438564Y-76052023D01*
X105412620Y-76100561D01*
X105396644Y-76153228D01*
X105391249Y-76208000D01*
X90754134Y-76208000D01*
X90754134Y-69039163D01*
X90781439Y-69030880D01*
X90829977Y-69004936D01*
X90872521Y-68970021D01*
X90907436Y-68927477D01*
X90933380Y-68878939D01*
X90949356Y-68826272D01*
X90954751Y-68771500D01*
X90954751Y-67871500D01*
X90949356Y-67816728D01*
X90933380Y-67764061D01*
X90907436Y-67715523D01*
X90872521Y-67672979D01*
X90829977Y-67638064D01*
X90781439Y-67612120D01*
X90754134Y-67603837D01*
X90754134Y-67310000D01*
X90751694Y-67285224D01*
X90744467Y-67261399D01*
X90732731Y-67239443D01*
X90716937Y-67220197D01*
X90697691Y-67204403D01*
X90675735Y-67192667D01*
X90651910Y-67185440D01*
X90627134Y-67183000D01*
X84850440Y-67183000D01*
X84850440Y-65988389D01*
X84878523Y-66011436D01*
X84927061Y-66037380D01*
X84979728Y-66053356D01*
X85034500Y-66058751D01*
X85988225Y-66058751D01*
X86062480Y-66136865D01*
X86244294Y-66265123D01*
X86447636Y-66355446D01*
X86502626Y-66372119D01*
X86677500Y-66245954D01*
X86677500Y-65405000D01*
X86931500Y-65405000D01*
X86931500Y-66245954D01*
X87106374Y-66372119D01*
X87161364Y-66355446D01*
X87364706Y-66265123D01*
X87439500Y-66212361D01*
X87514294Y-66265123D01*
X87717636Y-66355446D01*
X87772626Y-66372119D01*
X87947500Y-66245954D01*
X87947500Y-65405000D01*
X86931500Y-65405000D01*
X86677500Y-65405000D01*
X86657500Y-65405000D01*
X86657500Y-65151000D01*
X86677500Y-65151000D01*
X86677500Y-65131000D01*
X86931500Y-65131000D01*
X86931500Y-65151000D01*
X87947500Y-65151000D01*
X87947500Y-65131000D01*
X88201500Y-65131000D01*
X88201500Y-65151000D01*
X88221500Y-65151000D01*
X88221500Y-65405000D01*
X88201500Y-65405000D01*
X88201500Y-66245954D01*
X88376374Y-66372119D01*
X88431364Y-66355446D01*
X88634706Y-66265123D01*
X88816520Y-66136865D01*
X88969818Y-65975601D01*
X88974520Y-65968163D01*
X88975316Y-65968695D01*
X89117157Y-66027448D01*
X89267736Y-66057400D01*
X89421264Y-66057400D01*
X89571843Y-66027448D01*
X89713684Y-65968695D01*
X89841338Y-65883399D01*
X89949899Y-65774838D01*
X89979500Y-65730537D01*
X90009101Y-65774838D01*
X90117662Y-65883399D01*
X90245316Y-65968695D01*
X90387157Y-66027448D01*
X90537736Y-66057400D01*
X90691264Y-66057400D01*
X90841843Y-66027448D01*
X90983684Y-65968695D01*
X91111338Y-65883399D01*
X91219899Y-65774838D01*
X91305195Y-65647184D01*
X91363948Y-65505343D01*
X91392677Y-65360913D01*
X92052924Y-66021161D01*
X92065643Y-66036659D01*
X92081141Y-66049378D01*
X92081146Y-66049383D01*
X92102147Y-66066618D01*
X92127525Y-66087445D01*
X92198126Y-66125182D01*
X92274732Y-66148420D01*
X92282005Y-66149136D01*
X92334441Y-66154301D01*
X92334448Y-66154301D01*
X92354401Y-66156266D01*
X92374354Y-66154301D01*
X93609020Y-66154301D01*
X93628973Y-66156266D01*
X93648926Y-66154301D01*
X93648933Y-66154301D01*
X93708641Y-66148420D01*
X93785248Y-66125182D01*
X93855849Y-66087445D01*
X93917731Y-66036659D01*
X93930455Y-66021155D01*
X94775211Y-65176400D01*
X96619420Y-65176400D01*
X96656210Y-65231460D01*
X96757040Y-65332290D01*
X96875605Y-65411512D01*
X97007346Y-65466081D01*
X97147202Y-65493900D01*
X97289798Y-65493900D01*
X97429654Y-65466081D01*
X97561395Y-65411512D01*
X97679960Y-65332290D01*
X97780790Y-65231460D01*
X97860012Y-65112895D01*
X97914581Y-64981154D01*
X97942400Y-64841298D01*
X97942400Y-64698702D01*
X97914581Y-64558846D01*
X97860012Y-64427105D01*
X97809094Y-64350900D01*
X99588404Y-64350900D01*
X101118083Y-65880579D01*
X101102357Y-65959640D01*
X101099917Y-65984417D01*
X101102357Y-66009194D01*
X101145728Y-66227228D01*
X101152956Y-66251052D01*
X101164691Y-66273008D01*
X101288196Y-66457846D01*
X101303991Y-66477092D01*
X101323236Y-66492886D01*
X101508074Y-66616391D01*
X101530030Y-66628127D01*
X101553854Y-66635354D01*
X101645240Y-66653532D01*
X102535970Y-67544262D01*
X102535970Y-70702802D01*
X102536346Y-70702802D01*
X102538408Y-70727593D01*
X102572909Y-70901029D01*
X102580136Y-70924853D01*
X102591871Y-70946808D01*
X102690113Y-71093839D01*
X102705907Y-71113085D01*
X104158867Y-72566045D01*
X104158867Y-73723952D01*
X96738412Y-73723952D01*
X96713635Y-73726392D01*
X96564976Y-73755963D01*
X96541152Y-73763191D01*
X96519196Y-73774926D01*
X96393169Y-73859134D01*
X96373923Y-73874928D01*
X96040691Y-74208160D01*
X95835008Y-74249073D01*
X95811184Y-74256300D01*
X95789228Y-74268036D01*
X95604390Y-74391541D01*
X95585144Y-74407336D01*
X95569350Y-74426581D01*
X95445845Y-74611420D01*
X95434109Y-74633376D01*
X95426882Y-74657200D01*
X95383512Y-74875233D01*
X95381072Y-74900010D01*
X95383512Y-74924787D01*
X95426882Y-75142821D01*
X95434109Y-75166645D01*
X95445845Y-75188601D01*
X95569350Y-75373439D01*
X95585145Y-75392685D01*
X95604390Y-75408479D01*
X95789228Y-75531984D01*
X95811184Y-75543720D01*
X95835008Y-75550947D01*
X96053042Y-75594318D01*
X96077818Y-75596758D01*
X96102596Y-75594318D01*
X96320630Y-75550947D01*
X96344454Y-75543719D01*
X96366410Y-75531984D01*
X96551248Y-75408479D01*
X96570494Y-75392684D01*
X96586288Y-75373439D01*
X96709793Y-75188601D01*
X96721529Y-75166645D01*
X96728756Y-75142821D01*
X96769669Y-74937138D01*
X96951925Y-74754882D01*
X104077885Y-74754882D01*
X104088137Y-74806425D01*
X104095364Y-74830250D01*
X104107100Y-74852206D01*
X104230605Y-75037044D01*
X104246400Y-75056290D01*
X104265645Y-75072084D01*
X104450484Y-75195589D01*
X104472440Y-75207325D01*
X104496264Y-75214552D01*
X104714297Y-75257923D01*
X104739073Y-75260363D01*
X104763851Y-75257923D01*
X104981885Y-75214552D01*
X105005709Y-75207324D01*
X105027665Y-75195589D01*
X105212503Y-75072084D01*
X105231749Y-75056289D01*
X105247543Y-75037044D01*
X105371048Y-74852206D01*
X105382784Y-74830250D01*
X105390011Y-74806426D01*
X105433382Y-74588392D01*
X105435822Y-74563616D01*
X105433382Y-74538838D01*
X105390011Y-74320805D01*
X105382783Y-74296980D01*
X105371048Y-74275025D01*
X105364178Y-74264742D01*
X108883997Y-74264742D01*
X108883997Y-74407338D01*
X108911816Y-74547194D01*
X108966385Y-74678935D01*
X109045607Y-74797500D01*
X109146437Y-74898330D01*
X109265002Y-74977552D01*
X109396743Y-75032121D01*
X109536599Y-75059940D01*
X109679195Y-75059940D01*
X109819051Y-75032121D01*
X109950792Y-74977552D01*
X110069357Y-74898330D01*
X110170187Y-74797500D01*
X110234398Y-74701400D01*
X110337600Y-74701400D01*
X110337601Y-80172920D01*
X110282540Y-80209710D01*
X110181710Y-80310540D01*
X110102488Y-80429105D01*
X110047919Y-80560846D01*
X110020100Y-80700702D01*
X110020100Y-80843298D01*
X110047919Y-80983154D01*
X110102488Y-81114895D01*
X110181710Y-81233460D01*
X110282540Y-81334290D01*
X110401105Y-81413512D01*
X110532846Y-81468081D01*
X110672702Y-81495900D01*
X110815298Y-81495900D01*
X110955154Y-81468081D01*
X111086895Y-81413512D01*
X111205460Y-81334290D01*
X111306290Y-81233460D01*
X111385512Y-81114895D01*
X111440081Y-80983154D01*
X111467900Y-80843298D01*
X111467900Y-80700702D01*
X111440081Y-80560846D01*
X111385512Y-80429105D01*
X111306290Y-80310540D01*
X111205460Y-80209710D01*
X111150400Y-80172920D01*
X111150400Y-74314960D01*
X111152366Y-74295000D01*
X111150400Y-74275040D01*
X111150400Y-71139953D01*
X111152365Y-71120000D01*
X111150400Y-71100047D01*
X111150400Y-71100040D01*
X111144519Y-71040332D01*
X111143417Y-71036697D01*
X111121281Y-70963725D01*
X111101694Y-70927081D01*
X111083544Y-70893124D01*
X111062717Y-70867746D01*
X111045482Y-70846745D01*
X111045477Y-70846740D01*
X111032758Y-70831242D01*
X111017261Y-70818524D01*
X110565981Y-70367245D01*
X110578900Y-70302298D01*
X110578900Y-70159702D01*
X110551081Y-70019846D01*
X110496512Y-69888105D01*
X110417290Y-69769540D01*
X110316460Y-69668710D01*
X110197895Y-69589488D01*
X110066154Y-69534919D01*
X109926298Y-69507100D01*
X109783702Y-69507100D01*
X109643846Y-69534919D01*
X109512105Y-69589488D01*
X109393540Y-69668710D01*
X109292710Y-69769540D01*
X109213488Y-69888105D01*
X109158919Y-70019846D01*
X109131100Y-70159702D01*
X109131100Y-70302298D01*
X109158919Y-70442154D01*
X109213488Y-70573895D01*
X109292710Y-70692460D01*
X109393540Y-70793290D01*
X109512105Y-70872512D01*
X109643846Y-70927081D01*
X109783702Y-70954900D01*
X109926298Y-70954900D01*
X109991245Y-70941981D01*
X110337600Y-71288337D01*
X110337601Y-73888600D01*
X110179555Y-73888600D01*
X110170187Y-73874580D01*
X110069357Y-73773750D01*
X109950792Y-73694528D01*
X109819051Y-73639959D01*
X109679195Y-73612140D01*
X109536599Y-73612140D01*
X109396743Y-73639959D01*
X109265002Y-73694528D01*
X109146437Y-73773750D01*
X109045607Y-73874580D01*
X108966385Y-73993145D01*
X108911816Y-74124886D01*
X108883997Y-74264742D01*
X105364178Y-74264742D01*
X105319281Y-74197550D01*
X105319281Y-72325713D01*
X105316841Y-72300937D01*
X105282343Y-72127500D01*
X105275116Y-72103676D01*
X105263380Y-72081719D01*
X105165138Y-71934689D01*
X105149344Y-71915443D01*
X103696384Y-70462483D01*
X103696384Y-67445000D01*
X108439249Y-67445000D01*
X108439249Y-68445000D01*
X108444644Y-68499772D01*
X108460620Y-68552439D01*
X108486564Y-68600977D01*
X108521479Y-68643521D01*
X108564023Y-68678436D01*
X108612561Y-68704380D01*
X108665228Y-68720356D01*
X108720000Y-68725751D01*
X109720000Y-68725751D01*
X109774772Y-68720356D01*
X109827439Y-68704380D01*
X109875977Y-68678436D01*
X109918521Y-68643521D01*
X109953436Y-68600977D01*
X109979380Y-68552439D01*
X109995356Y-68499772D01*
X110000751Y-68445000D01*
X110000751Y-67445000D01*
X109995356Y-67390228D01*
X109979380Y-67337561D01*
X109953436Y-67289023D01*
X109918521Y-67246479D01*
X109875977Y-67211564D01*
X109827439Y-67185620D01*
X109815299Y-67181938D01*
X109825399Y-67171838D01*
X109910695Y-67044184D01*
X109969448Y-66902343D01*
X109999400Y-66751764D01*
X109999400Y-66598236D01*
X109969448Y-66447657D01*
X109910695Y-66305816D01*
X109825399Y-66178162D01*
X109716838Y-66069601D01*
X109589184Y-65984305D01*
X109447343Y-65925552D01*
X109296764Y-65895600D01*
X109143236Y-65895600D01*
X108992657Y-65925552D01*
X108850816Y-65984305D01*
X108723162Y-66069601D01*
X108614601Y-66178162D01*
X108529305Y-66305816D01*
X108470552Y-66447657D01*
X108440600Y-66598236D01*
X108440600Y-66751764D01*
X108470552Y-66902343D01*
X108529305Y-67044184D01*
X108614601Y-67171838D01*
X108624701Y-67181938D01*
X108612561Y-67185620D01*
X108564023Y-67211564D01*
X108521479Y-67246479D01*
X108486564Y-67289023D01*
X108460620Y-67337561D01*
X108444644Y-67390228D01*
X108439249Y-67445000D01*
X103696384Y-67445000D01*
X103696384Y-67303929D01*
X103693944Y-67279153D01*
X103659446Y-67105717D01*
X103652219Y-67081893D01*
X103640483Y-67059936D01*
X103542241Y-66912906D01*
X103526447Y-66893660D01*
X102466400Y-65833613D01*
X102468069Y-65830191D01*
X102474402Y-65806114D01*
X102475917Y-65781264D01*
X102472554Y-65756596D01*
X102464444Y-65733057D01*
X102451897Y-65711554D01*
X102435396Y-65692911D01*
X102415575Y-65677846D01*
X102393196Y-65666936D01*
X102369119Y-65660603D01*
X102349005Y-65659000D01*
X102281833Y-65659000D01*
X102250438Y-65612014D01*
X102169066Y-65530642D01*
X102073383Y-65466708D01*
X101967065Y-65422670D01*
X101854199Y-65400220D01*
X101787196Y-65400220D01*
X100058222Y-63671246D01*
X100045498Y-63655742D01*
X99983616Y-63604956D01*
X99913015Y-63567219D01*
X99836408Y-63543981D01*
X99776700Y-63538100D01*
X99776693Y-63538100D01*
X99756740Y-63536135D01*
X99736787Y-63538100D01*
X92858568Y-63538100D01*
X92838615Y-63536135D01*
X92818663Y-63538100D01*
X92818656Y-63538100D01*
X92797150Y-63540218D01*
X92764290Y-63491039D01*
X92663460Y-63390209D01*
X92544895Y-63310987D01*
X92413154Y-63256418D01*
X92273298Y-63228599D01*
X92130702Y-63228599D01*
X91990846Y-63256418D01*
X91859105Y-63310987D01*
X91771426Y-63369572D01*
X91768393Y-63367082D01*
X91443620Y-63042310D01*
X91432523Y-63028788D01*
X91405291Y-63006440D01*
X112507561Y-63006440D01*
X112507560Y-87107560D01*
G37*
X112507560Y-87107560D02*
X112027179Y-87107560D01*
X112014000Y-87106262D01*
X112000822Y-87107560D01*
X112000821Y-87107560D01*
X111976751Y-87109931D01*
X111976751Y-84455000D01*
X111971356Y-84400228D01*
X111955380Y-84347561D01*
X111929436Y-84299023D01*
X111894521Y-84256479D01*
X111851977Y-84221564D01*
X111803439Y-84195620D01*
X111750772Y-84179644D01*
X111696000Y-84174249D01*
X110426000Y-84174249D01*
X110371228Y-84179644D01*
X110318561Y-84195620D01*
X110270023Y-84221564D01*
X110261400Y-84228641D01*
X110261400Y-83784080D01*
X110316460Y-83747290D01*
X110417290Y-83646460D01*
X110496512Y-83527895D01*
X110551081Y-83396154D01*
X110578900Y-83256298D01*
X110578900Y-83113702D01*
X110551081Y-82973846D01*
X110496512Y-82842105D01*
X110417290Y-82723540D01*
X110316460Y-82622710D01*
X110197895Y-82543488D01*
X110066154Y-82488919D01*
X109926298Y-82461100D01*
X109783702Y-82461100D01*
X109643846Y-82488919D01*
X109512105Y-82543488D01*
X109393540Y-82622710D01*
X109292710Y-82723540D01*
X109213488Y-82842105D01*
X109158919Y-82973846D01*
X109131100Y-83113702D01*
X109131100Y-83256298D01*
X109158919Y-83396154D01*
X109213488Y-83527895D01*
X109292710Y-83646460D01*
X109393540Y-83747290D01*
X109448600Y-83784080D01*
X109448600Y-83833576D01*
X109448601Y-83833586D01*
X109448600Y-86658047D01*
X109446635Y-86678000D01*
X109448600Y-86697953D01*
X109448600Y-86697959D01*
X109454481Y-86757667D01*
X109477719Y-86834274D01*
X109515456Y-86904875D01*
X109566242Y-86966758D01*
X109581746Y-86979482D01*
X109870522Y-87268259D01*
X109883242Y-87283758D01*
X109898740Y-87296477D01*
X109898745Y-87296482D01*
X109919746Y-87313717D01*
X109945124Y-87334544D01*
X109998027Y-87362821D01*
X110015725Y-87372281D01*
X110092331Y-87395519D01*
X110099604Y-87396235D01*
X110145249Y-87400731D01*
X110145249Y-89535000D01*
X110150644Y-89589772D01*
X110166620Y-89642439D01*
X110192564Y-89690977D01*
X110227479Y-89733521D01*
X110270023Y-89768436D01*
X110318561Y-89794380D01*
X110371228Y-89810356D01*
X110426000Y-89815751D01*
X111696000Y-89815751D01*
X111745560Y-89810869D01*
X111745560Y-91680821D01*
X111744262Y-91694000D01*
X111749445Y-91746623D01*
X111764795Y-91797224D01*
X111789721Y-91843858D01*
X111823266Y-91884734D01*
X111864142Y-91918279D01*
X111910776Y-91943205D01*
X111961377Y-91958555D01*
X112014000Y-91963738D01*
X112027178Y-91962440D01*
X112507560Y-91962440D01*
X112507561Y-97267560D01*
X84850440Y-97267560D01*
X84850440Y-94987141D01*
X85679100Y-94987141D01*
X85679100Y-95258859D01*
X85732110Y-95525356D01*
X85836092Y-95776391D01*
X85987050Y-96002316D01*
X86179184Y-96194450D01*
X86405109Y-96345408D01*
X86656144Y-96449390D01*
X86922641Y-96502400D01*
X87194359Y-96502400D01*
X87460856Y-96449390D01*
X87711891Y-96345408D01*
X87937816Y-96194450D01*
X88129950Y-96002316D01*
X88280908Y-95776391D01*
X88384890Y-95525356D01*
X88437900Y-95258859D01*
X88437900Y-94987141D01*
X88384890Y-94720644D01*
X88280908Y-94469609D01*
X88129950Y-94243684D01*
X87937816Y-94051550D01*
X87711891Y-93900592D01*
X87460856Y-93796610D01*
X87194359Y-93743600D01*
X86922641Y-93743600D01*
X86656144Y-93796610D01*
X86405109Y-93900592D01*
X86179184Y-94051550D01*
X85987050Y-94243684D01*
X85836092Y-94469609D01*
X85732110Y-94720644D01*
X85679100Y-94987141D01*
X84850440Y-94987141D01*
X84850440Y-84455000D01*
X88175249Y-84455000D01*
X88175249Y-89535000D01*
X88180644Y-89589772D01*
X88196620Y-89642439D01*
X88222564Y-89690977D01*
X88257479Y-89733521D01*
X88300023Y-89768436D01*
X88348561Y-89794380D01*
X88401228Y-89810356D01*
X88456000Y-89815751D01*
X89726000Y-89815751D01*
X89780772Y-89810356D01*
X89833439Y-89794380D01*
X89881977Y-89768436D01*
X89924521Y-89733521D01*
X89959436Y-89690977D01*
X89985380Y-89642439D01*
X90001356Y-89589772D01*
X90006751Y-89535000D01*
X90006751Y-84455000D01*
X90001356Y-84400228D01*
X89985380Y-84347561D01*
X89959436Y-84299023D01*
X89924521Y-84256479D01*
X89881977Y-84221564D01*
X89833439Y-84195620D01*
X89780772Y-84179644D01*
X89726000Y-84174249D01*
X88456000Y-84174249D01*
X88401228Y-84179644D01*
X88348561Y-84195620D01*
X88300023Y-84221564D01*
X88257479Y-84256479D01*
X88222564Y-84299023D01*
X88196620Y-84347561D01*
X88180644Y-84400228D01*
X88175249Y-84455000D01*
X84850440Y-84455000D01*
X84850440Y-82931000D01*
X90678000Y-82931000D01*
X90702776Y-82928560D01*
X90726601Y-82921333D01*
X90748557Y-82909597D01*
X90767803Y-82893803D01*
X90783597Y-82874557D01*
X90795333Y-82852601D01*
X90802560Y-82828776D01*
X90805000Y-82804000D01*
X90805000Y-78678077D01*
X90802560Y-78653301D01*
X90795333Y-78629476D01*
X90783597Y-78607520D01*
X90767803Y-78588274D01*
X90754134Y-78577057D01*
X90754134Y-76208000D01*
X105391249Y-76208000D01*
X105391249Y-77208000D01*
X105396644Y-77262772D01*
X105412620Y-77315439D01*
X105438564Y-77363977D01*
X105473479Y-77406521D01*
X105516023Y-77441436D01*
X105564561Y-77467380D01*
X105617228Y-77483356D01*
X105672000Y-77488751D01*
X106672000Y-77488751D01*
X106726772Y-77483356D01*
X106779439Y-77467380D01*
X106827977Y-77441436D01*
X106870521Y-77406521D01*
X106905436Y-77363977D01*
X106931380Y-77315439D01*
X106947356Y-77262772D01*
X106952751Y-77208000D01*
X106952751Y-77097000D01*
X108566249Y-77097000D01*
X108566249Y-78097000D01*
X108571644Y-78151772D01*
X108587620Y-78204439D01*
X108613564Y-78252977D01*
X108648479Y-78295521D01*
X108691023Y-78330436D01*
X108739561Y-78356380D01*
X108792228Y-78372356D01*
X108847000Y-78377751D01*
X109847000Y-78377751D01*
X109901772Y-78372356D01*
X109954439Y-78356380D01*
X110002977Y-78330436D01*
X110045521Y-78295521D01*
X110080436Y-78252977D01*
X110106380Y-78204439D01*
X110122356Y-78151772D01*
X110127751Y-78097000D01*
X110127751Y-77097000D01*
X110122356Y-77042228D01*
X110106380Y-76989561D01*
X110080436Y-76941023D01*
X110045521Y-76898479D01*
X110002977Y-76863564D01*
X109954439Y-76837620D01*
X109942299Y-76833938D01*
X109952399Y-76823838D01*
X110037695Y-76696184D01*
X110096448Y-76554343D01*
X110126400Y-76403764D01*
X110126400Y-76250236D01*
X110096448Y-76099657D01*
X110037695Y-75957816D01*
X109952399Y-75830162D01*
X109843838Y-75721601D01*
X109716184Y-75636305D01*
X109574343Y-75577552D01*
X109423764Y-75547600D01*
X109270236Y-75547600D01*
X109119657Y-75577552D01*
X108977816Y-75636305D01*
X108850162Y-75721601D01*
X108741601Y-75830162D01*
X108656305Y-75957816D01*
X108597552Y-76099657D01*
X108567600Y-76250236D01*
X108567600Y-76403764D01*
X108597552Y-76554343D01*
X108656305Y-76696184D01*
X108741601Y-76823838D01*
X108751701Y-76833938D01*
X108739561Y-76837620D01*
X108691023Y-76863564D01*
X108648479Y-76898479D01*
X108613564Y-76941023D01*
X108587620Y-76989561D01*
X108571644Y-77042228D01*
X108566249Y-77097000D01*
X106952751Y-77097000D01*
X106952751Y-76208000D01*
X106947356Y-76153228D01*
X106931380Y-76100561D01*
X106905436Y-76052023D01*
X106870521Y-76009479D01*
X106827977Y-75974564D01*
X106779439Y-75948620D01*
X106726772Y-75932644D01*
X106672000Y-75927249D01*
X105672000Y-75927249D01*
X105617228Y-75932644D01*
X105564561Y-75948620D01*
X105516023Y-75974564D01*
X105473479Y-76009479D01*
X105438564Y-76052023D01*
X105412620Y-76100561D01*
X105396644Y-76153228D01*
X105391249Y-76208000D01*
X90754134Y-76208000D01*
X90754134Y-69039163D01*
X90781439Y-69030880D01*
X90829977Y-69004936D01*
X90872521Y-68970021D01*
X90907436Y-68927477D01*
X90933380Y-68878939D01*
X90949356Y-68826272D01*
X90954751Y-68771500D01*
X90954751Y-67871500D01*
X90949356Y-67816728D01*
X90933380Y-67764061D01*
X90907436Y-67715523D01*
X90872521Y-67672979D01*
X90829977Y-67638064D01*
X90781439Y-67612120D01*
X90754134Y-67603837D01*
X90754134Y-67310000D01*
X90751694Y-67285224D01*
X90744467Y-67261399D01*
X90732731Y-67239443D01*
X90716937Y-67220197D01*
X90697691Y-67204403D01*
X90675735Y-67192667D01*
X90651910Y-67185440D01*
X90627134Y-67183000D01*
X84850440Y-67183000D01*
X84850440Y-65988389D01*
X84878523Y-66011436D01*
X84927061Y-66037380D01*
X84979728Y-66053356D01*
X85034500Y-66058751D01*
X85988225Y-66058751D01*
X86062480Y-66136865D01*
X86244294Y-66265123D01*
X86447636Y-66355446D01*
X86502626Y-66372119D01*
X86677500Y-66245954D01*
X86677500Y-65405000D01*
X86931500Y-65405000D01*
X86931500Y-66245954D01*
X87106374Y-66372119D01*
X87161364Y-66355446D01*
X87364706Y-66265123D01*
X87439500Y-66212361D01*
X87514294Y-66265123D01*
X87717636Y-66355446D01*
X87772626Y-66372119D01*
X87947500Y-66245954D01*
X87947500Y-65405000D01*
X86931500Y-65405000D01*
X86677500Y-65405000D01*
X86657500Y-65405000D01*
X86657500Y-65151000D01*
X86677500Y-65151000D01*
X86677500Y-65131000D01*
X86931500Y-65131000D01*
X86931500Y-65151000D01*
X87947500Y-65151000D01*
X87947500Y-65131000D01*
X88201500Y-65131000D01*
X88201500Y-65151000D01*
X88221500Y-65151000D01*
X88221500Y-65405000D01*
X88201500Y-65405000D01*
X88201500Y-66245954D01*
X88376374Y-66372119D01*
X88431364Y-66355446D01*
X88634706Y-66265123D01*
X88816520Y-66136865D01*
X88969818Y-65975601D01*
X88974520Y-65968163D01*
X88975316Y-65968695D01*
X89117157Y-66027448D01*
X89267736Y-66057400D01*
X89421264Y-66057400D01*
X89571843Y-66027448D01*
X89713684Y-65968695D01*
X89841338Y-65883399D01*
X89949899Y-65774838D01*
X89979500Y-65730537D01*
X90009101Y-65774838D01*
X90117662Y-65883399D01*
X90245316Y-65968695D01*
X90387157Y-66027448D01*
X90537736Y-66057400D01*
X90691264Y-66057400D01*
X90841843Y-66027448D01*
X90983684Y-65968695D01*
X91111338Y-65883399D01*
X91219899Y-65774838D01*
X91305195Y-65647184D01*
X91363948Y-65505343D01*
X91392677Y-65360913D01*
X92052924Y-66021161D01*
X92065643Y-66036659D01*
X92081141Y-66049378D01*
X92081146Y-66049383D01*
X92102147Y-66066618D01*
X92127525Y-66087445D01*
X92198126Y-66125182D01*
X92274732Y-66148420D01*
X92282005Y-66149136D01*
X92334441Y-66154301D01*
X92334448Y-66154301D01*
X92354401Y-66156266D01*
X92374354Y-66154301D01*
X93609020Y-66154301D01*
X93628973Y-66156266D01*
X93648926Y-66154301D01*
X93648933Y-66154301D01*
X93708641Y-66148420D01*
X93785248Y-66125182D01*
X93855849Y-66087445D01*
X93917731Y-66036659D01*
X93930455Y-66021155D01*
X94775211Y-65176400D01*
X96619420Y-65176400D01*
X96656210Y-65231460D01*
X96757040Y-65332290D01*
X96875605Y-65411512D01*
X97007346Y-65466081D01*
X97147202Y-65493900D01*
X97289798Y-65493900D01*
X97429654Y-65466081D01*
X97561395Y-65411512D01*
X97679960Y-65332290D01*
X97780790Y-65231460D01*
X97860012Y-65112895D01*
X97914581Y-64981154D01*
X97942400Y-64841298D01*
X97942400Y-64698702D01*
X97914581Y-64558846D01*
X97860012Y-64427105D01*
X97809094Y-64350900D01*
X99588404Y-64350900D01*
X101118083Y-65880579D01*
X101102357Y-65959640D01*
X101099917Y-65984417D01*
X101102357Y-66009194D01*
X101145728Y-66227228D01*
X101152956Y-66251052D01*
X101164691Y-66273008D01*
X101288196Y-66457846D01*
X101303991Y-66477092D01*
X101323236Y-66492886D01*
X101508074Y-66616391D01*
X101530030Y-66628127D01*
X101553854Y-66635354D01*
X101645240Y-66653532D01*
X102535970Y-67544262D01*
X102535970Y-70702802D01*
X102536346Y-70702802D01*
X102538408Y-70727593D01*
X102572909Y-70901029D01*
X102580136Y-70924853D01*
X102591871Y-70946808D01*
X102690113Y-71093839D01*
X102705907Y-71113085D01*
X104158867Y-72566045D01*
X104158867Y-73723952D01*
X96738412Y-73723952D01*
X96713635Y-73726392D01*
X96564976Y-73755963D01*
X96541152Y-73763191D01*
X96519196Y-73774926D01*
X96393169Y-73859134D01*
X96373923Y-73874928D01*
X96040691Y-74208160D01*
X95835008Y-74249073D01*
X95811184Y-74256300D01*
X95789228Y-74268036D01*
X95604390Y-74391541D01*
X95585144Y-74407336D01*
X95569350Y-74426581D01*
X95445845Y-74611420D01*
X95434109Y-74633376D01*
X95426882Y-74657200D01*
X95383512Y-74875233D01*
X95381072Y-74900010D01*
X95383512Y-74924787D01*
X95426882Y-75142821D01*
X95434109Y-75166645D01*
X95445845Y-75188601D01*
X95569350Y-75373439D01*
X95585145Y-75392685D01*
X95604390Y-75408479D01*
X95789228Y-75531984D01*
X95811184Y-75543720D01*
X95835008Y-75550947D01*
X96053042Y-75594318D01*
X96077818Y-75596758D01*
X96102596Y-75594318D01*
X96320630Y-75550947D01*
X96344454Y-75543719D01*
X96366410Y-75531984D01*
X96551248Y-75408479D01*
X96570494Y-75392684D01*
X96586288Y-75373439D01*
X96709793Y-75188601D01*
X96721529Y-75166645D01*
X96728756Y-75142821D01*
X96769669Y-74937138D01*
X96951925Y-74754882D01*
X104077885Y-74754882D01*
X104088137Y-74806425D01*
X104095364Y-74830250D01*
X104107100Y-74852206D01*
X104230605Y-75037044D01*
X104246400Y-75056290D01*
X104265645Y-75072084D01*
X104450484Y-75195589D01*
X104472440Y-75207325D01*
X104496264Y-75214552D01*
X104714297Y-75257923D01*
X104739073Y-75260363D01*
X104763851Y-75257923D01*
X104981885Y-75214552D01*
X105005709Y-75207324D01*
X105027665Y-75195589D01*
X105212503Y-75072084D01*
X105231749Y-75056289D01*
X105247543Y-75037044D01*
X105371048Y-74852206D01*
X105382784Y-74830250D01*
X105390011Y-74806426D01*
X105433382Y-74588392D01*
X105435822Y-74563616D01*
X105433382Y-74538838D01*
X105390011Y-74320805D01*
X105382783Y-74296980D01*
X105371048Y-74275025D01*
X105364178Y-74264742D01*
X108883997Y-74264742D01*
X108883997Y-74407338D01*
X108911816Y-74547194D01*
X108966385Y-74678935D01*
X109045607Y-74797500D01*
X109146437Y-74898330D01*
X109265002Y-74977552D01*
X109396743Y-75032121D01*
X109536599Y-75059940D01*
X109679195Y-75059940D01*
X109819051Y-75032121D01*
X109950792Y-74977552D01*
X110069357Y-74898330D01*
X110170187Y-74797500D01*
X110234398Y-74701400D01*
X110337600Y-74701400D01*
X110337601Y-80172920D01*
X110282540Y-80209710D01*
X110181710Y-80310540D01*
X110102488Y-80429105D01*
X110047919Y-80560846D01*
X110020100Y-80700702D01*
X110020100Y-80843298D01*
X110047919Y-80983154D01*
X110102488Y-81114895D01*
X110181710Y-81233460D01*
X110282540Y-81334290D01*
X110401105Y-81413512D01*
X110532846Y-81468081D01*
X110672702Y-81495900D01*
X110815298Y-81495900D01*
X110955154Y-81468081D01*
X111086895Y-81413512D01*
X111205460Y-81334290D01*
X111306290Y-81233460D01*
X111385512Y-81114895D01*
X111440081Y-80983154D01*
X111467900Y-80843298D01*
X111467900Y-80700702D01*
X111440081Y-80560846D01*
X111385512Y-80429105D01*
X111306290Y-80310540D01*
X111205460Y-80209710D01*
X111150400Y-80172920D01*
X111150400Y-74314960D01*
X111152366Y-74295000D01*
X111150400Y-74275040D01*
X111150400Y-71139953D01*
X111152365Y-71120000D01*
X111150400Y-71100047D01*
X111150400Y-71100040D01*
X111144519Y-71040332D01*
X111143417Y-71036697D01*
X111121281Y-70963725D01*
X111101694Y-70927081D01*
X111083544Y-70893124D01*
X111062717Y-70867746D01*
X111045482Y-70846745D01*
X111045477Y-70846740D01*
X111032758Y-70831242D01*
X111017261Y-70818524D01*
X110565981Y-70367245D01*
X110578900Y-70302298D01*
X110578900Y-70159702D01*
X110551081Y-70019846D01*
X110496512Y-69888105D01*
X110417290Y-69769540D01*
X110316460Y-69668710D01*
X110197895Y-69589488D01*
X110066154Y-69534919D01*
X109926298Y-69507100D01*
X109783702Y-69507100D01*
X109643846Y-69534919D01*
X109512105Y-69589488D01*
X109393540Y-69668710D01*
X109292710Y-69769540D01*
X109213488Y-69888105D01*
X109158919Y-70019846D01*
X109131100Y-70159702D01*
X109131100Y-70302298D01*
X109158919Y-70442154D01*
X109213488Y-70573895D01*
X109292710Y-70692460D01*
X109393540Y-70793290D01*
X109512105Y-70872512D01*
X109643846Y-70927081D01*
X109783702Y-70954900D01*
X109926298Y-70954900D01*
X109991245Y-70941981D01*
X110337600Y-71288337D01*
X110337601Y-73888600D01*
X110179555Y-73888600D01*
X110170187Y-73874580D01*
X110069357Y-73773750D01*
X109950792Y-73694528D01*
X109819051Y-73639959D01*
X109679195Y-73612140D01*
X109536599Y-73612140D01*
X109396743Y-73639959D01*
X109265002Y-73694528D01*
X109146437Y-73773750D01*
X109045607Y-73874580D01*
X108966385Y-73993145D01*
X108911816Y-74124886D01*
X108883997Y-74264742D01*
X105364178Y-74264742D01*
X105319281Y-74197550D01*
X105319281Y-72325713D01*
X105316841Y-72300937D01*
X105282343Y-72127500D01*
X105275116Y-72103676D01*
X105263380Y-72081719D01*
X105165138Y-71934689D01*
X105149344Y-71915443D01*
X103696384Y-70462483D01*
X103696384Y-67445000D01*
X108439249Y-67445000D01*
X108439249Y-68445000D01*
X108444644Y-68499772D01*
X108460620Y-68552439D01*
X108486564Y-68600977D01*
X108521479Y-68643521D01*
X108564023Y-68678436D01*
X108612561Y-68704380D01*
X108665228Y-68720356D01*
X108720000Y-68725751D01*
X109720000Y-68725751D01*
X109774772Y-68720356D01*
X109827439Y-68704380D01*
X109875977Y-68678436D01*
X109918521Y-68643521D01*
X109953436Y-68600977D01*
X109979380Y-68552439D01*
X109995356Y-68499772D01*
X110000751Y-68445000D01*
X110000751Y-67445000D01*
X109995356Y-67390228D01*
X109979380Y-67337561D01*
X109953436Y-67289023D01*
X109918521Y-67246479D01*
X109875977Y-67211564D01*
X109827439Y-67185620D01*
X109815299Y-67181938D01*
X109825399Y-67171838D01*
X109910695Y-67044184D01*
X109969448Y-66902343D01*
X109999400Y-66751764D01*
X109999400Y-66598236D01*
X109969448Y-66447657D01*
X109910695Y-66305816D01*
X109825399Y-66178162D01*
X109716838Y-66069601D01*
X109589184Y-65984305D01*
X109447343Y-65925552D01*
X109296764Y-65895600D01*
X109143236Y-65895600D01*
X108992657Y-65925552D01*
X108850816Y-65984305D01*
X108723162Y-66069601D01*
X108614601Y-66178162D01*
X108529305Y-66305816D01*
X108470552Y-66447657D01*
X108440600Y-66598236D01*
X108440600Y-66751764D01*
X108470552Y-66902343D01*
X108529305Y-67044184D01*
X108614601Y-67171838D01*
X108624701Y-67181938D01*
X108612561Y-67185620D01*
X108564023Y-67211564D01*
X108521479Y-67246479D01*
X108486564Y-67289023D01*
X108460620Y-67337561D01*
X108444644Y-67390228D01*
X108439249Y-67445000D01*
X103696384Y-67445000D01*
X103696384Y-67303929D01*
X103693944Y-67279153D01*
X103659446Y-67105717D01*
X103652219Y-67081893D01*
X103640483Y-67059936D01*
X103542241Y-66912906D01*
X103526447Y-66893660D01*
X102466400Y-65833613D01*
X102468069Y-65830191D01*
X102474402Y-65806114D01*
X102475917Y-65781264D01*
X102472554Y-65756596D01*
X102464444Y-65733057D01*
X102451897Y-65711554D01*
X102435396Y-65692911D01*
X102415575Y-65677846D01*
X102393196Y-65666936D01*
X102369119Y-65660603D01*
X102349005Y-65659000D01*
X102281833Y-65659000D01*
X102250438Y-65612014D01*
X102169066Y-65530642D01*
X102073383Y-65466708D01*
X101967065Y-65422670D01*
X101854199Y-65400220D01*
X101787196Y-65400220D01*
X100058222Y-63671246D01*
X100045498Y-63655742D01*
X99983616Y-63604956D01*
X99913015Y-63567219D01*
X99836408Y-63543981D01*
X99776700Y-63538100D01*
X99776693Y-63538100D01*
X99756740Y-63536135D01*
X99736787Y-63538100D01*
X92858568Y-63538100D01*
X92838615Y-63536135D01*
X92818663Y-63538100D01*
X92818656Y-63538100D01*
X92797150Y-63540218D01*
X92764290Y-63491039D01*
X92663460Y-63390209D01*
X92544895Y-63310987D01*
X92413154Y-63256418D01*
X92273298Y-63228599D01*
X92130702Y-63228599D01*
X91990846Y-63256418D01*
X91859105Y-63310987D01*
X91771426Y-63369572D01*
X91768393Y-63367082D01*
X91443620Y-63042310D01*
X91432523Y-63028788D01*
X91405291Y-63006440D01*
X112507561Y-63006440D01*
X112507560Y-87107560D01*
M02*
