G04 #@! TF.GenerationSoftware,KiCad,Pcbnew,(5.1.5)-3*
G04 #@! TF.CreationDate,2020-06-21T07:00:24-05:00*
G04 #@! TF.ProjectId,nrf52832_qfax-PcbDoc,6e726635-3238-4333-925f-716661782d50,rev?*
G04 #@! TF.SameCoordinates,Original*
G04 #@! TF.FileFunction,Paste,Top*
G04 #@! TF.FilePolarity,Positive*
%FSLAX46Y46*%
G04 Gerber Fmt 4.6, Leading zero omitted, Abs format (unit mm)*
G04 Created by KiCad (PCBNEW (5.1.5)-3) date 2020-06-21 07:00:24*
%MOMM*%
%LPD*%
G04 APERTURE LIST*
%ADD10O,0.650000X0.200000*%
%ADD11O,0.200000X0.650000*%
%ADD12R,1.170000X1.170000*%
%ADD13R,1.900000X1.000000*%
%ADD14R,1.900000X1.800000*%
%ADD15R,1.300000X1.650000*%
%ADD16R,1.550000X1.425000*%
%ADD17R,1.380000X0.450000*%
%ADD18R,0.760000X1.600000*%
%ADD19R,0.600000X0.500000*%
%ADD20R,0.500000X0.600000*%
%ADD21R,0.950000X0.850000*%
%ADD22R,1.800000X1.000000*%
%ADD23R,0.750000X0.800000*%
%ADD24R,0.650000X0.500000*%
%ADD25R,1.060000X0.650000*%
%ADD26R,0.650000X1.060000*%
%ADD27C,0.100000*%
%ADD28R,0.500000X0.250000*%
%ADD29R,0.950000X1.170000*%
G04 APERTURE END LIST*
D10*
X102434060Y-73086620D03*
X102434060Y-72686620D03*
X102434060Y-72286620D03*
X102434060Y-71886620D03*
X102434060Y-71486620D03*
X102434060Y-71086620D03*
X102434060Y-70686620D03*
X102434060Y-70286620D03*
X102434060Y-69886620D03*
X102434060Y-69486620D03*
X102434060Y-69086620D03*
X102434060Y-68686620D03*
D11*
X101609070Y-67861620D03*
X101209070Y-67861620D03*
X100809060Y-67861620D03*
X100409070Y-67861620D03*
X100009070Y-67861620D03*
X99609060Y-67861620D03*
X99209060Y-67861620D03*
X98809060Y-67861620D03*
X98409060Y-67861620D03*
X98009060Y-67861620D03*
X97609060Y-67861620D03*
X97209060Y-67861620D03*
D10*
X96384060Y-68686620D03*
X96384060Y-69086620D03*
X96384060Y-69486620D03*
X96384060Y-69886620D03*
X96384060Y-70286620D03*
X96384060Y-70686620D03*
X96384060Y-71086620D03*
X96384060Y-71486620D03*
X96384060Y-71886620D03*
X96384060Y-72286620D03*
X96384060Y-72686620D03*
X96384060Y-73086620D03*
D11*
X97209060Y-73911620D03*
X97609070Y-73911620D03*
X98009060Y-73911620D03*
X98409060Y-73911620D03*
X98809070Y-73911620D03*
X99209060Y-73911620D03*
X99609070Y-73911620D03*
X100009070Y-73911620D03*
X100409070Y-73911620D03*
X100809070Y-73911620D03*
X101209070Y-73911620D03*
X101609070Y-73911620D03*
D12*
X99409060Y-70886620D03*
X100879060Y-70886620D03*
X97939060Y-70886620D03*
X99409060Y-69416620D03*
X100879060Y-69416620D03*
X97939060Y-69416620D03*
X100879060Y-72356620D03*
X99409060Y-72356620D03*
X97939060Y-72356620D03*
D13*
X86684000Y-90450000D03*
D14*
X86684000Y-87750000D03*
D15*
X86684000Y-92275000D03*
X86684000Y-85525000D03*
D16*
X89259000Y-91387500D03*
X89259000Y-86412500D03*
D17*
X89344000Y-90200000D03*
X89344000Y-89550000D03*
X89344000Y-88900000D03*
X89344000Y-88250000D03*
X89344000Y-87600000D03*
D18*
X103505000Y-95250000D03*
X103505000Y-90170000D03*
D19*
X94625860Y-73502820D03*
X93625860Y-73502820D03*
D20*
X90921620Y-74984210D03*
X90921620Y-75984210D03*
D19*
X104243050Y-72766220D03*
X105243050Y-72766220D03*
D20*
X97754140Y-74986420D03*
X97754140Y-75986420D03*
X95366620Y-74984210D03*
X95366620Y-75984210D03*
D21*
X93424620Y-74909210D03*
X93424620Y-76059210D03*
X91974620Y-76059210D03*
X91974620Y-74909210D03*
D19*
X101753850Y-66797220D03*
X102753850Y-66797220D03*
X106376650Y-68194220D03*
X107376650Y-68194220D03*
D22*
X106876660Y-71755610D03*
X106876660Y-69255610D03*
D23*
X101320940Y-75103150D03*
X102670940Y-75103150D03*
D19*
X94625870Y-72613820D03*
X93625870Y-72613820D03*
D20*
X96788940Y-75984150D03*
X96788940Y-74984150D03*
X94477620Y-75984210D03*
X94477620Y-74984210D03*
X95218060Y-70386620D03*
X95218060Y-71386620D03*
D23*
X105418060Y-73807620D03*
X104068060Y-73807620D03*
D24*
X93320660Y-70378620D03*
X94270660Y-70378620D03*
D20*
X105454260Y-71843820D03*
X105454260Y-70843820D03*
D25*
X105875000Y-82865000D03*
X105875000Y-81915000D03*
X105875000Y-80965000D03*
X103675000Y-80965000D03*
X103675000Y-82865000D03*
X103675000Y-81915000D03*
D26*
X98745000Y-95080000D03*
X99695000Y-95080000D03*
X100645000Y-95080000D03*
X100645000Y-92880000D03*
X98745000Y-92880000D03*
D27*
G36*
X105421958Y-79055710D02*
G01*
X105436276Y-79057834D01*
X105450317Y-79061351D01*
X105463946Y-79066228D01*
X105477031Y-79072417D01*
X105489447Y-79079858D01*
X105501073Y-79088481D01*
X105511798Y-79098202D01*
X105521519Y-79108927D01*
X105530142Y-79120553D01*
X105537583Y-79132969D01*
X105543772Y-79146054D01*
X105548649Y-79159683D01*
X105552166Y-79173724D01*
X105554290Y-79188042D01*
X105555000Y-79202500D01*
X105555000Y-79547500D01*
X105554290Y-79561958D01*
X105552166Y-79576276D01*
X105548649Y-79590317D01*
X105543772Y-79603946D01*
X105537583Y-79617031D01*
X105530142Y-79629447D01*
X105521519Y-79641073D01*
X105511798Y-79651798D01*
X105501073Y-79661519D01*
X105489447Y-79670142D01*
X105477031Y-79677583D01*
X105463946Y-79683772D01*
X105450317Y-79688649D01*
X105436276Y-79692166D01*
X105421958Y-79694290D01*
X105407500Y-79695000D01*
X105112500Y-79695000D01*
X105098042Y-79694290D01*
X105083724Y-79692166D01*
X105069683Y-79688649D01*
X105056054Y-79683772D01*
X105042969Y-79677583D01*
X105030553Y-79670142D01*
X105018927Y-79661519D01*
X105008202Y-79651798D01*
X104998481Y-79641073D01*
X104989858Y-79629447D01*
X104982417Y-79617031D01*
X104976228Y-79603946D01*
X104971351Y-79590317D01*
X104967834Y-79576276D01*
X104965710Y-79561958D01*
X104965000Y-79547500D01*
X104965000Y-79202500D01*
X104965710Y-79188042D01*
X104967834Y-79173724D01*
X104971351Y-79159683D01*
X104976228Y-79146054D01*
X104982417Y-79132969D01*
X104989858Y-79120553D01*
X104998481Y-79108927D01*
X105008202Y-79098202D01*
X105018927Y-79088481D01*
X105030553Y-79079858D01*
X105042969Y-79072417D01*
X105056054Y-79066228D01*
X105069683Y-79061351D01*
X105083724Y-79057834D01*
X105098042Y-79055710D01*
X105112500Y-79055000D01*
X105407500Y-79055000D01*
X105421958Y-79055710D01*
G37*
G36*
X104451958Y-79055710D02*
G01*
X104466276Y-79057834D01*
X104480317Y-79061351D01*
X104493946Y-79066228D01*
X104507031Y-79072417D01*
X104519447Y-79079858D01*
X104531073Y-79088481D01*
X104541798Y-79098202D01*
X104551519Y-79108927D01*
X104560142Y-79120553D01*
X104567583Y-79132969D01*
X104573772Y-79146054D01*
X104578649Y-79159683D01*
X104582166Y-79173724D01*
X104584290Y-79188042D01*
X104585000Y-79202500D01*
X104585000Y-79547500D01*
X104584290Y-79561958D01*
X104582166Y-79576276D01*
X104578649Y-79590317D01*
X104573772Y-79603946D01*
X104567583Y-79617031D01*
X104560142Y-79629447D01*
X104551519Y-79641073D01*
X104541798Y-79651798D01*
X104531073Y-79661519D01*
X104519447Y-79670142D01*
X104507031Y-79677583D01*
X104493946Y-79683772D01*
X104480317Y-79688649D01*
X104466276Y-79692166D01*
X104451958Y-79694290D01*
X104437500Y-79695000D01*
X104142500Y-79695000D01*
X104128042Y-79694290D01*
X104113724Y-79692166D01*
X104099683Y-79688649D01*
X104086054Y-79683772D01*
X104072969Y-79677583D01*
X104060553Y-79670142D01*
X104048927Y-79661519D01*
X104038202Y-79651798D01*
X104028481Y-79641073D01*
X104019858Y-79629447D01*
X104012417Y-79617031D01*
X104006228Y-79603946D01*
X104001351Y-79590317D01*
X103997834Y-79576276D01*
X103995710Y-79561958D01*
X103995000Y-79547500D01*
X103995000Y-79202500D01*
X103995710Y-79188042D01*
X103997834Y-79173724D01*
X104001351Y-79159683D01*
X104006228Y-79146054D01*
X104012417Y-79132969D01*
X104019858Y-79120553D01*
X104028481Y-79108927D01*
X104038202Y-79098202D01*
X104048927Y-79088481D01*
X104060553Y-79079858D01*
X104072969Y-79072417D01*
X104086054Y-79066228D01*
X104099683Y-79061351D01*
X104113724Y-79057834D01*
X104128042Y-79055710D01*
X104142500Y-79055000D01*
X104437500Y-79055000D01*
X104451958Y-79055710D01*
G37*
G36*
X94801958Y-89090710D02*
G01*
X94816276Y-89092834D01*
X94830317Y-89096351D01*
X94843946Y-89101228D01*
X94857031Y-89107417D01*
X94869447Y-89114858D01*
X94881073Y-89123481D01*
X94891798Y-89133202D01*
X94901519Y-89143927D01*
X94910142Y-89155553D01*
X94917583Y-89167969D01*
X94923772Y-89181054D01*
X94928649Y-89194683D01*
X94932166Y-89208724D01*
X94934290Y-89223042D01*
X94935000Y-89237500D01*
X94935000Y-89532500D01*
X94934290Y-89546958D01*
X94932166Y-89561276D01*
X94928649Y-89575317D01*
X94923772Y-89588946D01*
X94917583Y-89602031D01*
X94910142Y-89614447D01*
X94901519Y-89626073D01*
X94891798Y-89636798D01*
X94881073Y-89646519D01*
X94869447Y-89655142D01*
X94857031Y-89662583D01*
X94843946Y-89668772D01*
X94830317Y-89673649D01*
X94816276Y-89677166D01*
X94801958Y-89679290D01*
X94787500Y-89680000D01*
X94442500Y-89680000D01*
X94428042Y-89679290D01*
X94413724Y-89677166D01*
X94399683Y-89673649D01*
X94386054Y-89668772D01*
X94372969Y-89662583D01*
X94360553Y-89655142D01*
X94348927Y-89646519D01*
X94338202Y-89636798D01*
X94328481Y-89626073D01*
X94319858Y-89614447D01*
X94312417Y-89602031D01*
X94306228Y-89588946D01*
X94301351Y-89575317D01*
X94297834Y-89561276D01*
X94295710Y-89546958D01*
X94295000Y-89532500D01*
X94295000Y-89237500D01*
X94295710Y-89223042D01*
X94297834Y-89208724D01*
X94301351Y-89194683D01*
X94306228Y-89181054D01*
X94312417Y-89167969D01*
X94319858Y-89155553D01*
X94328481Y-89143927D01*
X94338202Y-89133202D01*
X94348927Y-89123481D01*
X94360553Y-89114858D01*
X94372969Y-89107417D01*
X94386054Y-89101228D01*
X94399683Y-89096351D01*
X94413724Y-89092834D01*
X94428042Y-89090710D01*
X94442500Y-89090000D01*
X94787500Y-89090000D01*
X94801958Y-89090710D01*
G37*
G36*
X94801958Y-88120710D02*
G01*
X94816276Y-88122834D01*
X94830317Y-88126351D01*
X94843946Y-88131228D01*
X94857031Y-88137417D01*
X94869447Y-88144858D01*
X94881073Y-88153481D01*
X94891798Y-88163202D01*
X94901519Y-88173927D01*
X94910142Y-88185553D01*
X94917583Y-88197969D01*
X94923772Y-88211054D01*
X94928649Y-88224683D01*
X94932166Y-88238724D01*
X94934290Y-88253042D01*
X94935000Y-88267500D01*
X94935000Y-88562500D01*
X94934290Y-88576958D01*
X94932166Y-88591276D01*
X94928649Y-88605317D01*
X94923772Y-88618946D01*
X94917583Y-88632031D01*
X94910142Y-88644447D01*
X94901519Y-88656073D01*
X94891798Y-88666798D01*
X94881073Y-88676519D01*
X94869447Y-88685142D01*
X94857031Y-88692583D01*
X94843946Y-88698772D01*
X94830317Y-88703649D01*
X94816276Y-88707166D01*
X94801958Y-88709290D01*
X94787500Y-88710000D01*
X94442500Y-88710000D01*
X94428042Y-88709290D01*
X94413724Y-88707166D01*
X94399683Y-88703649D01*
X94386054Y-88698772D01*
X94372969Y-88692583D01*
X94360553Y-88685142D01*
X94348927Y-88676519D01*
X94338202Y-88666798D01*
X94328481Y-88656073D01*
X94319858Y-88644447D01*
X94312417Y-88632031D01*
X94306228Y-88618946D01*
X94301351Y-88605317D01*
X94297834Y-88591276D01*
X94295710Y-88576958D01*
X94295000Y-88562500D01*
X94295000Y-88267500D01*
X94295710Y-88253042D01*
X94297834Y-88238724D01*
X94301351Y-88224683D01*
X94306228Y-88211054D01*
X94312417Y-88197969D01*
X94319858Y-88185553D01*
X94328481Y-88173927D01*
X94338202Y-88163202D01*
X94348927Y-88153481D01*
X94360553Y-88144858D01*
X94372969Y-88137417D01*
X94386054Y-88131228D01*
X94399683Y-88126351D01*
X94413724Y-88122834D01*
X94428042Y-88120710D01*
X94442500Y-88120000D01*
X94787500Y-88120000D01*
X94801958Y-88120710D01*
G37*
G36*
X106231958Y-94170710D02*
G01*
X106246276Y-94172834D01*
X106260317Y-94176351D01*
X106273946Y-94181228D01*
X106287031Y-94187417D01*
X106299447Y-94194858D01*
X106311073Y-94203481D01*
X106321798Y-94213202D01*
X106331519Y-94223927D01*
X106340142Y-94235553D01*
X106347583Y-94247969D01*
X106353772Y-94261054D01*
X106358649Y-94274683D01*
X106362166Y-94288724D01*
X106364290Y-94303042D01*
X106365000Y-94317500D01*
X106365000Y-94612500D01*
X106364290Y-94626958D01*
X106362166Y-94641276D01*
X106358649Y-94655317D01*
X106353772Y-94668946D01*
X106347583Y-94682031D01*
X106340142Y-94694447D01*
X106331519Y-94706073D01*
X106321798Y-94716798D01*
X106311073Y-94726519D01*
X106299447Y-94735142D01*
X106287031Y-94742583D01*
X106273946Y-94748772D01*
X106260317Y-94753649D01*
X106246276Y-94757166D01*
X106231958Y-94759290D01*
X106217500Y-94760000D01*
X105872500Y-94760000D01*
X105858042Y-94759290D01*
X105843724Y-94757166D01*
X105829683Y-94753649D01*
X105816054Y-94748772D01*
X105802969Y-94742583D01*
X105790553Y-94735142D01*
X105778927Y-94726519D01*
X105768202Y-94716798D01*
X105758481Y-94706073D01*
X105749858Y-94694447D01*
X105742417Y-94682031D01*
X105736228Y-94668946D01*
X105731351Y-94655317D01*
X105727834Y-94641276D01*
X105725710Y-94626958D01*
X105725000Y-94612500D01*
X105725000Y-94317500D01*
X105725710Y-94303042D01*
X105727834Y-94288724D01*
X105731351Y-94274683D01*
X105736228Y-94261054D01*
X105742417Y-94247969D01*
X105749858Y-94235553D01*
X105758481Y-94223927D01*
X105768202Y-94213202D01*
X105778927Y-94203481D01*
X105790553Y-94194858D01*
X105802969Y-94187417D01*
X105816054Y-94181228D01*
X105829683Y-94176351D01*
X105843724Y-94172834D01*
X105858042Y-94170710D01*
X105872500Y-94170000D01*
X106217500Y-94170000D01*
X106231958Y-94170710D01*
G37*
G36*
X106231958Y-93200710D02*
G01*
X106246276Y-93202834D01*
X106260317Y-93206351D01*
X106273946Y-93211228D01*
X106287031Y-93217417D01*
X106299447Y-93224858D01*
X106311073Y-93233481D01*
X106321798Y-93243202D01*
X106331519Y-93253927D01*
X106340142Y-93265553D01*
X106347583Y-93277969D01*
X106353772Y-93291054D01*
X106358649Y-93304683D01*
X106362166Y-93318724D01*
X106364290Y-93333042D01*
X106365000Y-93347500D01*
X106365000Y-93642500D01*
X106364290Y-93656958D01*
X106362166Y-93671276D01*
X106358649Y-93685317D01*
X106353772Y-93698946D01*
X106347583Y-93712031D01*
X106340142Y-93724447D01*
X106331519Y-93736073D01*
X106321798Y-93746798D01*
X106311073Y-93756519D01*
X106299447Y-93765142D01*
X106287031Y-93772583D01*
X106273946Y-93778772D01*
X106260317Y-93783649D01*
X106246276Y-93787166D01*
X106231958Y-93789290D01*
X106217500Y-93790000D01*
X105872500Y-93790000D01*
X105858042Y-93789290D01*
X105843724Y-93787166D01*
X105829683Y-93783649D01*
X105816054Y-93778772D01*
X105802969Y-93772583D01*
X105790553Y-93765142D01*
X105778927Y-93756519D01*
X105768202Y-93746798D01*
X105758481Y-93736073D01*
X105749858Y-93724447D01*
X105742417Y-93712031D01*
X105736228Y-93698946D01*
X105731351Y-93685317D01*
X105727834Y-93671276D01*
X105725710Y-93656958D01*
X105725000Y-93642500D01*
X105725000Y-93347500D01*
X105725710Y-93333042D01*
X105727834Y-93318724D01*
X105731351Y-93304683D01*
X105736228Y-93291054D01*
X105742417Y-93277969D01*
X105749858Y-93265553D01*
X105758481Y-93253927D01*
X105768202Y-93243202D01*
X105778927Y-93233481D01*
X105790553Y-93224858D01*
X105802969Y-93217417D01*
X105816054Y-93211228D01*
X105829683Y-93206351D01*
X105843724Y-93202834D01*
X105858042Y-93200710D01*
X105872500Y-93200000D01*
X106217500Y-93200000D01*
X106231958Y-93200710D01*
G37*
G36*
X94892691Y-92756053D02*
G01*
X94913926Y-92759203D01*
X94934750Y-92764419D01*
X94954962Y-92771651D01*
X94974368Y-92780830D01*
X94992781Y-92791866D01*
X95010024Y-92804654D01*
X95025930Y-92819070D01*
X95040346Y-92834976D01*
X95053134Y-92852219D01*
X95064170Y-92870632D01*
X95073349Y-92890038D01*
X95080581Y-92910250D01*
X95085797Y-92931074D01*
X95088947Y-92952309D01*
X95090000Y-92973750D01*
X95090000Y-93411250D01*
X95088947Y-93432691D01*
X95085797Y-93453926D01*
X95080581Y-93474750D01*
X95073349Y-93494962D01*
X95064170Y-93514368D01*
X95053134Y-93532781D01*
X95040346Y-93550024D01*
X95025930Y-93565930D01*
X95010024Y-93580346D01*
X94992781Y-93593134D01*
X94974368Y-93604170D01*
X94954962Y-93613349D01*
X94934750Y-93620581D01*
X94913926Y-93625797D01*
X94892691Y-93628947D01*
X94871250Y-93630000D01*
X94358750Y-93630000D01*
X94337309Y-93628947D01*
X94316074Y-93625797D01*
X94295250Y-93620581D01*
X94275038Y-93613349D01*
X94255632Y-93604170D01*
X94237219Y-93593134D01*
X94219976Y-93580346D01*
X94204070Y-93565930D01*
X94189654Y-93550024D01*
X94176866Y-93532781D01*
X94165830Y-93514368D01*
X94156651Y-93494962D01*
X94149419Y-93474750D01*
X94144203Y-93453926D01*
X94141053Y-93432691D01*
X94140000Y-93411250D01*
X94140000Y-92973750D01*
X94141053Y-92952309D01*
X94144203Y-92931074D01*
X94149419Y-92910250D01*
X94156651Y-92890038D01*
X94165830Y-92870632D01*
X94176866Y-92852219D01*
X94189654Y-92834976D01*
X94204070Y-92819070D01*
X94219976Y-92804654D01*
X94237219Y-92791866D01*
X94255632Y-92780830D01*
X94275038Y-92771651D01*
X94295250Y-92764419D01*
X94316074Y-92759203D01*
X94337309Y-92756053D01*
X94358750Y-92755000D01*
X94871250Y-92755000D01*
X94892691Y-92756053D01*
G37*
G36*
X94892691Y-94331053D02*
G01*
X94913926Y-94334203D01*
X94934750Y-94339419D01*
X94954962Y-94346651D01*
X94974368Y-94355830D01*
X94992781Y-94366866D01*
X95010024Y-94379654D01*
X95025930Y-94394070D01*
X95040346Y-94409976D01*
X95053134Y-94427219D01*
X95064170Y-94445632D01*
X95073349Y-94465038D01*
X95080581Y-94485250D01*
X95085797Y-94506074D01*
X95088947Y-94527309D01*
X95090000Y-94548750D01*
X95090000Y-94986250D01*
X95088947Y-95007691D01*
X95085797Y-95028926D01*
X95080581Y-95049750D01*
X95073349Y-95069962D01*
X95064170Y-95089368D01*
X95053134Y-95107781D01*
X95040346Y-95125024D01*
X95025930Y-95140930D01*
X95010024Y-95155346D01*
X94992781Y-95168134D01*
X94974368Y-95179170D01*
X94954962Y-95188349D01*
X94934750Y-95195581D01*
X94913926Y-95200797D01*
X94892691Y-95203947D01*
X94871250Y-95205000D01*
X94358750Y-95205000D01*
X94337309Y-95203947D01*
X94316074Y-95200797D01*
X94295250Y-95195581D01*
X94275038Y-95188349D01*
X94255632Y-95179170D01*
X94237219Y-95168134D01*
X94219976Y-95155346D01*
X94204070Y-95140930D01*
X94189654Y-95125024D01*
X94176866Y-95107781D01*
X94165830Y-95089368D01*
X94156651Y-95069962D01*
X94149419Y-95049750D01*
X94144203Y-95028926D01*
X94141053Y-95007691D01*
X94140000Y-94986250D01*
X94140000Y-94548750D01*
X94141053Y-94527309D01*
X94144203Y-94506074D01*
X94149419Y-94485250D01*
X94156651Y-94465038D01*
X94165830Y-94445632D01*
X94176866Y-94427219D01*
X94189654Y-94409976D01*
X94204070Y-94394070D01*
X94219976Y-94379654D01*
X94237219Y-94366866D01*
X94255632Y-94355830D01*
X94275038Y-94346651D01*
X94295250Y-94339419D01*
X94316074Y-94334203D01*
X94337309Y-94331053D01*
X94358750Y-94330000D01*
X94871250Y-94330000D01*
X94892691Y-94331053D01*
G37*
G36*
X96619891Y-92756053D02*
G01*
X96641126Y-92759203D01*
X96661950Y-92764419D01*
X96682162Y-92771651D01*
X96701568Y-92780830D01*
X96719981Y-92791866D01*
X96737224Y-92804654D01*
X96753130Y-92819070D01*
X96767546Y-92834976D01*
X96780334Y-92852219D01*
X96791370Y-92870632D01*
X96800549Y-92890038D01*
X96807781Y-92910250D01*
X96812997Y-92931074D01*
X96816147Y-92952309D01*
X96817200Y-92973750D01*
X96817200Y-93411250D01*
X96816147Y-93432691D01*
X96812997Y-93453926D01*
X96807781Y-93474750D01*
X96800549Y-93494962D01*
X96791370Y-93514368D01*
X96780334Y-93532781D01*
X96767546Y-93550024D01*
X96753130Y-93565930D01*
X96737224Y-93580346D01*
X96719981Y-93593134D01*
X96701568Y-93604170D01*
X96682162Y-93613349D01*
X96661950Y-93620581D01*
X96641126Y-93625797D01*
X96619891Y-93628947D01*
X96598450Y-93630000D01*
X96085950Y-93630000D01*
X96064509Y-93628947D01*
X96043274Y-93625797D01*
X96022450Y-93620581D01*
X96002238Y-93613349D01*
X95982832Y-93604170D01*
X95964419Y-93593134D01*
X95947176Y-93580346D01*
X95931270Y-93565930D01*
X95916854Y-93550024D01*
X95904066Y-93532781D01*
X95893030Y-93514368D01*
X95883851Y-93494962D01*
X95876619Y-93474750D01*
X95871403Y-93453926D01*
X95868253Y-93432691D01*
X95867200Y-93411250D01*
X95867200Y-92973750D01*
X95868253Y-92952309D01*
X95871403Y-92931074D01*
X95876619Y-92910250D01*
X95883851Y-92890038D01*
X95893030Y-92870632D01*
X95904066Y-92852219D01*
X95916854Y-92834976D01*
X95931270Y-92819070D01*
X95947176Y-92804654D01*
X95964419Y-92791866D01*
X95982832Y-92780830D01*
X96002238Y-92771651D01*
X96022450Y-92764419D01*
X96043274Y-92759203D01*
X96064509Y-92756053D01*
X96085950Y-92755000D01*
X96598450Y-92755000D01*
X96619891Y-92756053D01*
G37*
G36*
X96619891Y-94331053D02*
G01*
X96641126Y-94334203D01*
X96661950Y-94339419D01*
X96682162Y-94346651D01*
X96701568Y-94355830D01*
X96719981Y-94366866D01*
X96737224Y-94379654D01*
X96753130Y-94394070D01*
X96767546Y-94409976D01*
X96780334Y-94427219D01*
X96791370Y-94445632D01*
X96800549Y-94465038D01*
X96807781Y-94485250D01*
X96812997Y-94506074D01*
X96816147Y-94527309D01*
X96817200Y-94548750D01*
X96817200Y-94986250D01*
X96816147Y-95007691D01*
X96812997Y-95028926D01*
X96807781Y-95049750D01*
X96800549Y-95069962D01*
X96791370Y-95089368D01*
X96780334Y-95107781D01*
X96767546Y-95125024D01*
X96753130Y-95140930D01*
X96737224Y-95155346D01*
X96719981Y-95168134D01*
X96701568Y-95179170D01*
X96682162Y-95188349D01*
X96661950Y-95195581D01*
X96641126Y-95200797D01*
X96619891Y-95203947D01*
X96598450Y-95205000D01*
X96085950Y-95205000D01*
X96064509Y-95203947D01*
X96043274Y-95200797D01*
X96022450Y-95195581D01*
X96002238Y-95188349D01*
X95982832Y-95179170D01*
X95964419Y-95168134D01*
X95947176Y-95155346D01*
X95931270Y-95140930D01*
X95916854Y-95125024D01*
X95904066Y-95107781D01*
X95893030Y-95089368D01*
X95883851Y-95069962D01*
X95876619Y-95049750D01*
X95871403Y-95028926D01*
X95868253Y-95007691D01*
X95867200Y-94986250D01*
X95867200Y-94548750D01*
X95868253Y-94527309D01*
X95871403Y-94506074D01*
X95876619Y-94485250D01*
X95883851Y-94465038D01*
X95893030Y-94445632D01*
X95904066Y-94427219D01*
X95916854Y-94409976D01*
X95931270Y-94394070D01*
X95947176Y-94379654D01*
X95964419Y-94366866D01*
X95982832Y-94355830D01*
X96002238Y-94346651D01*
X96022450Y-94339419D01*
X96043274Y-94334203D01*
X96064509Y-94331053D01*
X96085950Y-94330000D01*
X96598450Y-94330000D01*
X96619891Y-94331053D01*
G37*
G36*
X106999703Y-89835722D02*
G01*
X107014264Y-89837882D01*
X107028543Y-89841459D01*
X107042403Y-89846418D01*
X107055710Y-89852712D01*
X107068336Y-89860280D01*
X107080159Y-89869048D01*
X107091066Y-89878934D01*
X107100952Y-89889841D01*
X107109720Y-89901664D01*
X107117288Y-89914290D01*
X107123582Y-89927597D01*
X107128541Y-89941457D01*
X107132118Y-89955736D01*
X107134278Y-89970297D01*
X107135000Y-89985000D01*
X107135000Y-90285000D01*
X107134278Y-90299703D01*
X107132118Y-90314264D01*
X107128541Y-90328543D01*
X107123582Y-90342403D01*
X107117288Y-90355710D01*
X107109720Y-90368336D01*
X107100952Y-90380159D01*
X107091066Y-90391066D01*
X107080159Y-90400952D01*
X107068336Y-90409720D01*
X107055710Y-90417288D01*
X107042403Y-90423582D01*
X107028543Y-90428541D01*
X107014264Y-90432118D01*
X106999703Y-90434278D01*
X106985000Y-90435000D01*
X106435000Y-90435000D01*
X106420297Y-90434278D01*
X106405736Y-90432118D01*
X106391457Y-90428541D01*
X106377597Y-90423582D01*
X106364290Y-90417288D01*
X106351664Y-90409720D01*
X106339841Y-90400952D01*
X106328934Y-90391066D01*
X106319048Y-90380159D01*
X106310280Y-90368336D01*
X106302712Y-90355710D01*
X106296418Y-90342403D01*
X106291459Y-90328543D01*
X106287882Y-90314264D01*
X106285722Y-90299703D01*
X106285000Y-90285000D01*
X106285000Y-89985000D01*
X106285722Y-89970297D01*
X106287882Y-89955736D01*
X106291459Y-89941457D01*
X106296418Y-89927597D01*
X106302712Y-89914290D01*
X106310280Y-89901664D01*
X106319048Y-89889841D01*
X106328934Y-89878934D01*
X106339841Y-89869048D01*
X106351664Y-89860280D01*
X106364290Y-89852712D01*
X106377597Y-89846418D01*
X106391457Y-89841459D01*
X106405736Y-89837882D01*
X106420297Y-89835722D01*
X106435000Y-89835000D01*
X106985000Y-89835000D01*
X106999703Y-89835722D01*
G37*
G36*
X106999703Y-88635722D02*
G01*
X107014264Y-88637882D01*
X107028543Y-88641459D01*
X107042403Y-88646418D01*
X107055710Y-88652712D01*
X107068336Y-88660280D01*
X107080159Y-88669048D01*
X107091066Y-88678934D01*
X107100952Y-88689841D01*
X107109720Y-88701664D01*
X107117288Y-88714290D01*
X107123582Y-88727597D01*
X107128541Y-88741457D01*
X107132118Y-88755736D01*
X107134278Y-88770297D01*
X107135000Y-88785000D01*
X107135000Y-89085000D01*
X107134278Y-89099703D01*
X107132118Y-89114264D01*
X107128541Y-89128543D01*
X107123582Y-89142403D01*
X107117288Y-89155710D01*
X107109720Y-89168336D01*
X107100952Y-89180159D01*
X107091066Y-89191066D01*
X107080159Y-89200952D01*
X107068336Y-89209720D01*
X107055710Y-89217288D01*
X107042403Y-89223582D01*
X107028543Y-89228541D01*
X107014264Y-89232118D01*
X106999703Y-89234278D01*
X106985000Y-89235000D01*
X106435000Y-89235000D01*
X106420297Y-89234278D01*
X106405736Y-89232118D01*
X106391457Y-89228541D01*
X106377597Y-89223582D01*
X106364290Y-89217288D01*
X106351664Y-89209720D01*
X106339841Y-89200952D01*
X106328934Y-89191066D01*
X106319048Y-89180159D01*
X106310280Y-89168336D01*
X106302712Y-89155710D01*
X106296418Y-89142403D01*
X106291459Y-89128543D01*
X106287882Y-89114264D01*
X106285722Y-89099703D01*
X106285000Y-89085000D01*
X106285000Y-88785000D01*
X106285722Y-88770297D01*
X106287882Y-88755736D01*
X106291459Y-88741457D01*
X106296418Y-88727597D01*
X106302712Y-88714290D01*
X106310280Y-88701664D01*
X106319048Y-88689841D01*
X106328934Y-88678934D01*
X106339841Y-88669048D01*
X106351664Y-88660280D01*
X106364290Y-88652712D01*
X106377597Y-88646418D01*
X106391457Y-88641459D01*
X106405736Y-88637882D01*
X106420297Y-88635722D01*
X106435000Y-88635000D01*
X106985000Y-88635000D01*
X106999703Y-88635722D01*
G37*
G36*
X110727153Y-90935843D02*
G01*
X110744141Y-90938363D01*
X110760800Y-90942535D01*
X110776970Y-90948321D01*
X110792494Y-90955664D01*
X110807225Y-90964493D01*
X110821019Y-90974723D01*
X110833744Y-90986256D01*
X110845277Y-90998981D01*
X110855507Y-91012775D01*
X110864336Y-91027506D01*
X110871679Y-91043030D01*
X110877465Y-91059200D01*
X110881637Y-91075859D01*
X110884157Y-91092847D01*
X110885000Y-91110000D01*
X110885000Y-91460000D01*
X110884157Y-91477153D01*
X110881637Y-91494141D01*
X110877465Y-91510800D01*
X110871679Y-91526970D01*
X110864336Y-91542494D01*
X110855507Y-91557225D01*
X110845277Y-91571019D01*
X110833744Y-91583744D01*
X110821019Y-91595277D01*
X110807225Y-91605507D01*
X110792494Y-91614336D01*
X110776970Y-91621679D01*
X110760800Y-91627465D01*
X110744141Y-91631637D01*
X110727153Y-91634157D01*
X110710000Y-91635000D01*
X110260000Y-91635000D01*
X110242847Y-91634157D01*
X110225859Y-91631637D01*
X110209200Y-91627465D01*
X110193030Y-91621679D01*
X110177506Y-91614336D01*
X110162775Y-91605507D01*
X110148981Y-91595277D01*
X110136256Y-91583744D01*
X110124723Y-91571019D01*
X110114493Y-91557225D01*
X110105664Y-91542494D01*
X110098321Y-91526970D01*
X110092535Y-91510800D01*
X110088363Y-91494141D01*
X110085843Y-91477153D01*
X110085000Y-91460000D01*
X110085000Y-91110000D01*
X110085843Y-91092847D01*
X110088363Y-91075859D01*
X110092535Y-91059200D01*
X110098321Y-91043030D01*
X110105664Y-91027506D01*
X110114493Y-91012775D01*
X110124723Y-90998981D01*
X110136256Y-90986256D01*
X110148981Y-90974723D01*
X110162775Y-90964493D01*
X110177506Y-90955664D01*
X110193030Y-90948321D01*
X110209200Y-90942535D01*
X110225859Y-90938363D01*
X110242847Y-90935843D01*
X110260000Y-90935000D01*
X110710000Y-90935000D01*
X110727153Y-90935843D01*
G37*
G36*
X110727153Y-87435843D02*
G01*
X110744141Y-87438363D01*
X110760800Y-87442535D01*
X110776970Y-87448321D01*
X110792494Y-87455664D01*
X110807225Y-87464493D01*
X110821019Y-87474723D01*
X110833744Y-87486256D01*
X110845277Y-87498981D01*
X110855507Y-87512775D01*
X110864336Y-87527506D01*
X110871679Y-87543030D01*
X110877465Y-87559200D01*
X110881637Y-87575859D01*
X110884157Y-87592847D01*
X110885000Y-87610000D01*
X110885000Y-87960000D01*
X110884157Y-87977153D01*
X110881637Y-87994141D01*
X110877465Y-88010800D01*
X110871679Y-88026970D01*
X110864336Y-88042494D01*
X110855507Y-88057225D01*
X110845277Y-88071019D01*
X110833744Y-88083744D01*
X110821019Y-88095277D01*
X110807225Y-88105507D01*
X110792494Y-88114336D01*
X110776970Y-88121679D01*
X110760800Y-88127465D01*
X110744141Y-88131637D01*
X110727153Y-88134157D01*
X110710000Y-88135000D01*
X110260000Y-88135000D01*
X110242847Y-88134157D01*
X110225859Y-88131637D01*
X110209200Y-88127465D01*
X110193030Y-88121679D01*
X110177506Y-88114336D01*
X110162775Y-88105507D01*
X110148981Y-88095277D01*
X110136256Y-88083744D01*
X110124723Y-88071019D01*
X110114493Y-88057225D01*
X110105664Y-88042494D01*
X110098321Y-88026970D01*
X110092535Y-88010800D01*
X110088363Y-87994141D01*
X110085843Y-87977153D01*
X110085000Y-87960000D01*
X110085000Y-87610000D01*
X110085843Y-87592847D01*
X110088363Y-87575859D01*
X110092535Y-87559200D01*
X110098321Y-87543030D01*
X110105664Y-87527506D01*
X110114493Y-87512775D01*
X110124723Y-87498981D01*
X110136256Y-87486256D01*
X110148981Y-87474723D01*
X110162775Y-87464493D01*
X110177506Y-87455664D01*
X110193030Y-87448321D01*
X110209200Y-87442535D01*
X110225859Y-87438363D01*
X110242847Y-87435843D01*
X110260000Y-87435000D01*
X110710000Y-87435000D01*
X110727153Y-87435843D01*
G37*
G36*
X104301958Y-84135710D02*
G01*
X104316276Y-84137834D01*
X104330317Y-84141351D01*
X104343946Y-84146228D01*
X104357031Y-84152417D01*
X104369447Y-84159858D01*
X104381073Y-84168481D01*
X104391798Y-84178202D01*
X104401519Y-84188927D01*
X104410142Y-84200553D01*
X104417583Y-84212969D01*
X104423772Y-84226054D01*
X104428649Y-84239683D01*
X104432166Y-84253724D01*
X104434290Y-84268042D01*
X104435000Y-84282500D01*
X104435000Y-84627500D01*
X104434290Y-84641958D01*
X104432166Y-84656276D01*
X104428649Y-84670317D01*
X104423772Y-84683946D01*
X104417583Y-84697031D01*
X104410142Y-84709447D01*
X104401519Y-84721073D01*
X104391798Y-84731798D01*
X104381073Y-84741519D01*
X104369447Y-84750142D01*
X104357031Y-84757583D01*
X104343946Y-84763772D01*
X104330317Y-84768649D01*
X104316276Y-84772166D01*
X104301958Y-84774290D01*
X104287500Y-84775000D01*
X103992500Y-84775000D01*
X103978042Y-84774290D01*
X103963724Y-84772166D01*
X103949683Y-84768649D01*
X103936054Y-84763772D01*
X103922969Y-84757583D01*
X103910553Y-84750142D01*
X103898927Y-84741519D01*
X103888202Y-84731798D01*
X103878481Y-84721073D01*
X103869858Y-84709447D01*
X103862417Y-84697031D01*
X103856228Y-84683946D01*
X103851351Y-84670317D01*
X103847834Y-84656276D01*
X103845710Y-84641958D01*
X103845000Y-84627500D01*
X103845000Y-84282500D01*
X103845710Y-84268042D01*
X103847834Y-84253724D01*
X103851351Y-84239683D01*
X103856228Y-84226054D01*
X103862417Y-84212969D01*
X103869858Y-84200553D01*
X103878481Y-84188927D01*
X103888202Y-84178202D01*
X103898927Y-84168481D01*
X103910553Y-84159858D01*
X103922969Y-84152417D01*
X103936054Y-84146228D01*
X103949683Y-84141351D01*
X103963724Y-84137834D01*
X103978042Y-84135710D01*
X103992500Y-84135000D01*
X104287500Y-84135000D01*
X104301958Y-84135710D01*
G37*
G36*
X105271958Y-84135710D02*
G01*
X105286276Y-84137834D01*
X105300317Y-84141351D01*
X105313946Y-84146228D01*
X105327031Y-84152417D01*
X105339447Y-84159858D01*
X105351073Y-84168481D01*
X105361798Y-84178202D01*
X105371519Y-84188927D01*
X105380142Y-84200553D01*
X105387583Y-84212969D01*
X105393772Y-84226054D01*
X105398649Y-84239683D01*
X105402166Y-84253724D01*
X105404290Y-84268042D01*
X105405000Y-84282500D01*
X105405000Y-84627500D01*
X105404290Y-84641958D01*
X105402166Y-84656276D01*
X105398649Y-84670317D01*
X105393772Y-84683946D01*
X105387583Y-84697031D01*
X105380142Y-84709447D01*
X105371519Y-84721073D01*
X105361798Y-84731798D01*
X105351073Y-84741519D01*
X105339447Y-84750142D01*
X105327031Y-84757583D01*
X105313946Y-84763772D01*
X105300317Y-84768649D01*
X105286276Y-84772166D01*
X105271958Y-84774290D01*
X105257500Y-84775000D01*
X104962500Y-84775000D01*
X104948042Y-84774290D01*
X104933724Y-84772166D01*
X104919683Y-84768649D01*
X104906054Y-84763772D01*
X104892969Y-84757583D01*
X104880553Y-84750142D01*
X104868927Y-84741519D01*
X104858202Y-84731798D01*
X104848481Y-84721073D01*
X104839858Y-84709447D01*
X104832417Y-84697031D01*
X104826228Y-84683946D01*
X104821351Y-84670317D01*
X104817834Y-84656276D01*
X104815710Y-84641958D01*
X104815000Y-84627500D01*
X104815000Y-84282500D01*
X104815710Y-84268042D01*
X104817834Y-84253724D01*
X104821351Y-84239683D01*
X104826228Y-84226054D01*
X104832417Y-84212969D01*
X104839858Y-84200553D01*
X104848481Y-84188927D01*
X104858202Y-84178202D01*
X104868927Y-84168481D01*
X104880553Y-84159858D01*
X104892969Y-84152417D01*
X104906054Y-84146228D01*
X104919683Y-84141351D01*
X104933724Y-84137834D01*
X104948042Y-84135710D01*
X104962500Y-84135000D01*
X105257500Y-84135000D01*
X105271958Y-84135710D01*
G37*
G36*
X101786958Y-82405710D02*
G01*
X101801276Y-82407834D01*
X101815317Y-82411351D01*
X101828946Y-82416228D01*
X101842031Y-82422417D01*
X101854447Y-82429858D01*
X101866073Y-82438481D01*
X101876798Y-82448202D01*
X101886519Y-82458927D01*
X101895142Y-82470553D01*
X101902583Y-82482969D01*
X101908772Y-82496054D01*
X101913649Y-82509683D01*
X101917166Y-82523724D01*
X101919290Y-82538042D01*
X101920000Y-82552500D01*
X101920000Y-82847500D01*
X101919290Y-82861958D01*
X101917166Y-82876276D01*
X101913649Y-82890317D01*
X101908772Y-82903946D01*
X101902583Y-82917031D01*
X101895142Y-82929447D01*
X101886519Y-82941073D01*
X101876798Y-82951798D01*
X101866073Y-82961519D01*
X101854447Y-82970142D01*
X101842031Y-82977583D01*
X101828946Y-82983772D01*
X101815317Y-82988649D01*
X101801276Y-82992166D01*
X101786958Y-82994290D01*
X101772500Y-82995000D01*
X101427500Y-82995000D01*
X101413042Y-82994290D01*
X101398724Y-82992166D01*
X101384683Y-82988649D01*
X101371054Y-82983772D01*
X101357969Y-82977583D01*
X101345553Y-82970142D01*
X101333927Y-82961519D01*
X101323202Y-82951798D01*
X101313481Y-82941073D01*
X101304858Y-82929447D01*
X101297417Y-82917031D01*
X101291228Y-82903946D01*
X101286351Y-82890317D01*
X101282834Y-82876276D01*
X101280710Y-82861958D01*
X101280000Y-82847500D01*
X101280000Y-82552500D01*
X101280710Y-82538042D01*
X101282834Y-82523724D01*
X101286351Y-82509683D01*
X101291228Y-82496054D01*
X101297417Y-82482969D01*
X101304858Y-82470553D01*
X101313481Y-82458927D01*
X101323202Y-82448202D01*
X101333927Y-82438481D01*
X101345553Y-82429858D01*
X101357969Y-82422417D01*
X101371054Y-82416228D01*
X101384683Y-82411351D01*
X101398724Y-82407834D01*
X101413042Y-82405710D01*
X101427500Y-82405000D01*
X101772500Y-82405000D01*
X101786958Y-82405710D01*
G37*
G36*
X101786958Y-83375710D02*
G01*
X101801276Y-83377834D01*
X101815317Y-83381351D01*
X101828946Y-83386228D01*
X101842031Y-83392417D01*
X101854447Y-83399858D01*
X101866073Y-83408481D01*
X101876798Y-83418202D01*
X101886519Y-83428927D01*
X101895142Y-83440553D01*
X101902583Y-83452969D01*
X101908772Y-83466054D01*
X101913649Y-83479683D01*
X101917166Y-83493724D01*
X101919290Y-83508042D01*
X101920000Y-83522500D01*
X101920000Y-83817500D01*
X101919290Y-83831958D01*
X101917166Y-83846276D01*
X101913649Y-83860317D01*
X101908772Y-83873946D01*
X101902583Y-83887031D01*
X101895142Y-83899447D01*
X101886519Y-83911073D01*
X101876798Y-83921798D01*
X101866073Y-83931519D01*
X101854447Y-83940142D01*
X101842031Y-83947583D01*
X101828946Y-83953772D01*
X101815317Y-83958649D01*
X101801276Y-83962166D01*
X101786958Y-83964290D01*
X101772500Y-83965000D01*
X101427500Y-83965000D01*
X101413042Y-83964290D01*
X101398724Y-83962166D01*
X101384683Y-83958649D01*
X101371054Y-83953772D01*
X101357969Y-83947583D01*
X101345553Y-83940142D01*
X101333927Y-83931519D01*
X101323202Y-83921798D01*
X101313481Y-83911073D01*
X101304858Y-83899447D01*
X101297417Y-83887031D01*
X101291228Y-83873946D01*
X101286351Y-83860317D01*
X101282834Y-83846276D01*
X101280710Y-83831958D01*
X101280000Y-83817500D01*
X101280000Y-83522500D01*
X101280710Y-83508042D01*
X101282834Y-83493724D01*
X101286351Y-83479683D01*
X101291228Y-83466054D01*
X101297417Y-83452969D01*
X101304858Y-83440553D01*
X101313481Y-83428927D01*
X101323202Y-83418202D01*
X101333927Y-83408481D01*
X101345553Y-83399858D01*
X101357969Y-83392417D01*
X101371054Y-83386228D01*
X101384683Y-83381351D01*
X101398724Y-83377834D01*
X101413042Y-83375710D01*
X101427500Y-83375000D01*
X101772500Y-83375000D01*
X101786958Y-83375710D01*
G37*
G36*
X94166958Y-82405710D02*
G01*
X94181276Y-82407834D01*
X94195317Y-82411351D01*
X94208946Y-82416228D01*
X94222031Y-82422417D01*
X94234447Y-82429858D01*
X94246073Y-82438481D01*
X94256798Y-82448202D01*
X94266519Y-82458927D01*
X94275142Y-82470553D01*
X94282583Y-82482969D01*
X94288772Y-82496054D01*
X94293649Y-82509683D01*
X94297166Y-82523724D01*
X94299290Y-82538042D01*
X94300000Y-82552500D01*
X94300000Y-82847500D01*
X94299290Y-82861958D01*
X94297166Y-82876276D01*
X94293649Y-82890317D01*
X94288772Y-82903946D01*
X94282583Y-82917031D01*
X94275142Y-82929447D01*
X94266519Y-82941073D01*
X94256798Y-82951798D01*
X94246073Y-82961519D01*
X94234447Y-82970142D01*
X94222031Y-82977583D01*
X94208946Y-82983772D01*
X94195317Y-82988649D01*
X94181276Y-82992166D01*
X94166958Y-82994290D01*
X94152500Y-82995000D01*
X93807500Y-82995000D01*
X93793042Y-82994290D01*
X93778724Y-82992166D01*
X93764683Y-82988649D01*
X93751054Y-82983772D01*
X93737969Y-82977583D01*
X93725553Y-82970142D01*
X93713927Y-82961519D01*
X93703202Y-82951798D01*
X93693481Y-82941073D01*
X93684858Y-82929447D01*
X93677417Y-82917031D01*
X93671228Y-82903946D01*
X93666351Y-82890317D01*
X93662834Y-82876276D01*
X93660710Y-82861958D01*
X93660000Y-82847500D01*
X93660000Y-82552500D01*
X93660710Y-82538042D01*
X93662834Y-82523724D01*
X93666351Y-82509683D01*
X93671228Y-82496054D01*
X93677417Y-82482969D01*
X93684858Y-82470553D01*
X93693481Y-82458927D01*
X93703202Y-82448202D01*
X93713927Y-82438481D01*
X93725553Y-82429858D01*
X93737969Y-82422417D01*
X93751054Y-82416228D01*
X93764683Y-82411351D01*
X93778724Y-82407834D01*
X93793042Y-82405710D01*
X93807500Y-82405000D01*
X94152500Y-82405000D01*
X94166958Y-82405710D01*
G37*
G36*
X94166958Y-83375710D02*
G01*
X94181276Y-83377834D01*
X94195317Y-83381351D01*
X94208946Y-83386228D01*
X94222031Y-83392417D01*
X94234447Y-83399858D01*
X94246073Y-83408481D01*
X94256798Y-83418202D01*
X94266519Y-83428927D01*
X94275142Y-83440553D01*
X94282583Y-83452969D01*
X94288772Y-83466054D01*
X94293649Y-83479683D01*
X94297166Y-83493724D01*
X94299290Y-83508042D01*
X94300000Y-83522500D01*
X94300000Y-83817500D01*
X94299290Y-83831958D01*
X94297166Y-83846276D01*
X94293649Y-83860317D01*
X94288772Y-83873946D01*
X94282583Y-83887031D01*
X94275142Y-83899447D01*
X94266519Y-83911073D01*
X94256798Y-83921798D01*
X94246073Y-83931519D01*
X94234447Y-83940142D01*
X94222031Y-83947583D01*
X94208946Y-83953772D01*
X94195317Y-83958649D01*
X94181276Y-83962166D01*
X94166958Y-83964290D01*
X94152500Y-83965000D01*
X93807500Y-83965000D01*
X93793042Y-83964290D01*
X93778724Y-83962166D01*
X93764683Y-83958649D01*
X93751054Y-83953772D01*
X93737969Y-83947583D01*
X93725553Y-83940142D01*
X93713927Y-83931519D01*
X93703202Y-83921798D01*
X93693481Y-83911073D01*
X93684858Y-83899447D01*
X93677417Y-83887031D01*
X93671228Y-83873946D01*
X93666351Y-83860317D01*
X93662834Y-83846276D01*
X93660710Y-83831958D01*
X93660000Y-83817500D01*
X93660000Y-83522500D01*
X93660710Y-83508042D01*
X93662834Y-83493724D01*
X93666351Y-83479683D01*
X93671228Y-83466054D01*
X93677417Y-83452969D01*
X93684858Y-83440553D01*
X93693481Y-83428927D01*
X93703202Y-83418202D01*
X93713927Y-83408481D01*
X93725553Y-83399858D01*
X93737969Y-83392417D01*
X93751054Y-83386228D01*
X93764683Y-83381351D01*
X93778724Y-83377834D01*
X93793042Y-83375710D01*
X93807500Y-83375000D01*
X94152500Y-83375000D01*
X94166958Y-83375710D01*
G37*
G36*
X94801958Y-90660710D02*
G01*
X94816276Y-90662834D01*
X94830317Y-90666351D01*
X94843946Y-90671228D01*
X94857031Y-90677417D01*
X94869447Y-90684858D01*
X94881073Y-90693481D01*
X94891798Y-90703202D01*
X94901519Y-90713927D01*
X94910142Y-90725553D01*
X94917583Y-90737969D01*
X94923772Y-90751054D01*
X94928649Y-90764683D01*
X94932166Y-90778724D01*
X94934290Y-90793042D01*
X94935000Y-90807500D01*
X94935000Y-91102500D01*
X94934290Y-91116958D01*
X94932166Y-91131276D01*
X94928649Y-91145317D01*
X94923772Y-91158946D01*
X94917583Y-91172031D01*
X94910142Y-91184447D01*
X94901519Y-91196073D01*
X94891798Y-91206798D01*
X94881073Y-91216519D01*
X94869447Y-91225142D01*
X94857031Y-91232583D01*
X94843946Y-91238772D01*
X94830317Y-91243649D01*
X94816276Y-91247166D01*
X94801958Y-91249290D01*
X94787500Y-91250000D01*
X94442500Y-91250000D01*
X94428042Y-91249290D01*
X94413724Y-91247166D01*
X94399683Y-91243649D01*
X94386054Y-91238772D01*
X94372969Y-91232583D01*
X94360553Y-91225142D01*
X94348927Y-91216519D01*
X94338202Y-91206798D01*
X94328481Y-91196073D01*
X94319858Y-91184447D01*
X94312417Y-91172031D01*
X94306228Y-91158946D01*
X94301351Y-91145317D01*
X94297834Y-91131276D01*
X94295710Y-91116958D01*
X94295000Y-91102500D01*
X94295000Y-90807500D01*
X94295710Y-90793042D01*
X94297834Y-90778724D01*
X94301351Y-90764683D01*
X94306228Y-90751054D01*
X94312417Y-90737969D01*
X94319858Y-90725553D01*
X94328481Y-90713927D01*
X94338202Y-90703202D01*
X94348927Y-90693481D01*
X94360553Y-90684858D01*
X94372969Y-90677417D01*
X94386054Y-90671228D01*
X94399683Y-90666351D01*
X94413724Y-90662834D01*
X94428042Y-90660710D01*
X94442500Y-90660000D01*
X94787500Y-90660000D01*
X94801958Y-90660710D01*
G37*
G36*
X94801958Y-91630710D02*
G01*
X94816276Y-91632834D01*
X94830317Y-91636351D01*
X94843946Y-91641228D01*
X94857031Y-91647417D01*
X94869447Y-91654858D01*
X94881073Y-91663481D01*
X94891798Y-91673202D01*
X94901519Y-91683927D01*
X94910142Y-91695553D01*
X94917583Y-91707969D01*
X94923772Y-91721054D01*
X94928649Y-91734683D01*
X94932166Y-91748724D01*
X94934290Y-91763042D01*
X94935000Y-91777500D01*
X94935000Y-92072500D01*
X94934290Y-92086958D01*
X94932166Y-92101276D01*
X94928649Y-92115317D01*
X94923772Y-92128946D01*
X94917583Y-92142031D01*
X94910142Y-92154447D01*
X94901519Y-92166073D01*
X94891798Y-92176798D01*
X94881073Y-92186519D01*
X94869447Y-92195142D01*
X94857031Y-92202583D01*
X94843946Y-92208772D01*
X94830317Y-92213649D01*
X94816276Y-92217166D01*
X94801958Y-92219290D01*
X94787500Y-92220000D01*
X94442500Y-92220000D01*
X94428042Y-92219290D01*
X94413724Y-92217166D01*
X94399683Y-92213649D01*
X94386054Y-92208772D01*
X94372969Y-92202583D01*
X94360553Y-92195142D01*
X94348927Y-92186519D01*
X94338202Y-92176798D01*
X94328481Y-92166073D01*
X94319858Y-92154447D01*
X94312417Y-92142031D01*
X94306228Y-92128946D01*
X94301351Y-92115317D01*
X94297834Y-92101276D01*
X94295710Y-92086958D01*
X94295000Y-92072500D01*
X94295000Y-91777500D01*
X94295710Y-91763042D01*
X94297834Y-91748724D01*
X94301351Y-91734683D01*
X94306228Y-91721054D01*
X94312417Y-91707969D01*
X94319858Y-91695553D01*
X94328481Y-91683927D01*
X94338202Y-91673202D01*
X94348927Y-91663481D01*
X94360553Y-91654858D01*
X94372969Y-91647417D01*
X94386054Y-91641228D01*
X94399683Y-91636351D01*
X94413724Y-91632834D01*
X94428042Y-91630710D01*
X94442500Y-91630000D01*
X94787500Y-91630000D01*
X94801958Y-91630710D01*
G37*
G36*
X96529158Y-91630710D02*
G01*
X96543476Y-91632834D01*
X96557517Y-91636351D01*
X96571146Y-91641228D01*
X96584231Y-91647417D01*
X96596647Y-91654858D01*
X96608273Y-91663481D01*
X96618998Y-91673202D01*
X96628719Y-91683927D01*
X96637342Y-91695553D01*
X96644783Y-91707969D01*
X96650972Y-91721054D01*
X96655849Y-91734683D01*
X96659366Y-91748724D01*
X96661490Y-91763042D01*
X96662200Y-91777500D01*
X96662200Y-92072500D01*
X96661490Y-92086958D01*
X96659366Y-92101276D01*
X96655849Y-92115317D01*
X96650972Y-92128946D01*
X96644783Y-92142031D01*
X96637342Y-92154447D01*
X96628719Y-92166073D01*
X96618998Y-92176798D01*
X96608273Y-92186519D01*
X96596647Y-92195142D01*
X96584231Y-92202583D01*
X96571146Y-92208772D01*
X96557517Y-92213649D01*
X96543476Y-92217166D01*
X96529158Y-92219290D01*
X96514700Y-92220000D01*
X96169700Y-92220000D01*
X96155242Y-92219290D01*
X96140924Y-92217166D01*
X96126883Y-92213649D01*
X96113254Y-92208772D01*
X96100169Y-92202583D01*
X96087753Y-92195142D01*
X96076127Y-92186519D01*
X96065402Y-92176798D01*
X96055681Y-92166073D01*
X96047058Y-92154447D01*
X96039617Y-92142031D01*
X96033428Y-92128946D01*
X96028551Y-92115317D01*
X96025034Y-92101276D01*
X96022910Y-92086958D01*
X96022200Y-92072500D01*
X96022200Y-91777500D01*
X96022910Y-91763042D01*
X96025034Y-91748724D01*
X96028551Y-91734683D01*
X96033428Y-91721054D01*
X96039617Y-91707969D01*
X96047058Y-91695553D01*
X96055681Y-91683927D01*
X96065402Y-91673202D01*
X96076127Y-91663481D01*
X96087753Y-91654858D01*
X96100169Y-91647417D01*
X96113254Y-91641228D01*
X96126883Y-91636351D01*
X96140924Y-91632834D01*
X96155242Y-91630710D01*
X96169700Y-91630000D01*
X96514700Y-91630000D01*
X96529158Y-91630710D01*
G37*
G36*
X96529158Y-90660710D02*
G01*
X96543476Y-90662834D01*
X96557517Y-90666351D01*
X96571146Y-90671228D01*
X96584231Y-90677417D01*
X96596647Y-90684858D01*
X96608273Y-90693481D01*
X96618998Y-90703202D01*
X96628719Y-90713927D01*
X96637342Y-90725553D01*
X96644783Y-90737969D01*
X96650972Y-90751054D01*
X96655849Y-90764683D01*
X96659366Y-90778724D01*
X96661490Y-90793042D01*
X96662200Y-90807500D01*
X96662200Y-91102500D01*
X96661490Y-91116958D01*
X96659366Y-91131276D01*
X96655849Y-91145317D01*
X96650972Y-91158946D01*
X96644783Y-91172031D01*
X96637342Y-91184447D01*
X96628719Y-91196073D01*
X96618998Y-91206798D01*
X96608273Y-91216519D01*
X96596647Y-91225142D01*
X96584231Y-91232583D01*
X96571146Y-91238772D01*
X96557517Y-91243649D01*
X96543476Y-91247166D01*
X96529158Y-91249290D01*
X96514700Y-91250000D01*
X96169700Y-91250000D01*
X96155242Y-91249290D01*
X96140924Y-91247166D01*
X96126883Y-91243649D01*
X96113254Y-91238772D01*
X96100169Y-91232583D01*
X96087753Y-91225142D01*
X96076127Y-91216519D01*
X96065402Y-91206798D01*
X96055681Y-91196073D01*
X96047058Y-91184447D01*
X96039617Y-91172031D01*
X96033428Y-91158946D01*
X96028551Y-91145317D01*
X96025034Y-91131276D01*
X96022910Y-91116958D01*
X96022200Y-91102500D01*
X96022200Y-90807500D01*
X96022910Y-90793042D01*
X96025034Y-90778724D01*
X96028551Y-90764683D01*
X96033428Y-90751054D01*
X96039617Y-90737969D01*
X96047058Y-90725553D01*
X96055681Y-90713927D01*
X96065402Y-90703202D01*
X96076127Y-90693481D01*
X96087753Y-90684858D01*
X96100169Y-90677417D01*
X96113254Y-90671228D01*
X96126883Y-90666351D01*
X96140924Y-90662834D01*
X96155242Y-90660710D01*
X96169700Y-90660000D01*
X96514700Y-90660000D01*
X96529158Y-90660710D01*
G37*
G36*
X96529158Y-88120710D02*
G01*
X96543476Y-88122834D01*
X96557517Y-88126351D01*
X96571146Y-88131228D01*
X96584231Y-88137417D01*
X96596647Y-88144858D01*
X96608273Y-88153481D01*
X96618998Y-88163202D01*
X96628719Y-88173927D01*
X96637342Y-88185553D01*
X96644783Y-88197969D01*
X96650972Y-88211054D01*
X96655849Y-88224683D01*
X96659366Y-88238724D01*
X96661490Y-88253042D01*
X96662200Y-88267500D01*
X96662200Y-88562500D01*
X96661490Y-88576958D01*
X96659366Y-88591276D01*
X96655849Y-88605317D01*
X96650972Y-88618946D01*
X96644783Y-88632031D01*
X96637342Y-88644447D01*
X96628719Y-88656073D01*
X96618998Y-88666798D01*
X96608273Y-88676519D01*
X96596647Y-88685142D01*
X96584231Y-88692583D01*
X96571146Y-88698772D01*
X96557517Y-88703649D01*
X96543476Y-88707166D01*
X96529158Y-88709290D01*
X96514700Y-88710000D01*
X96169700Y-88710000D01*
X96155242Y-88709290D01*
X96140924Y-88707166D01*
X96126883Y-88703649D01*
X96113254Y-88698772D01*
X96100169Y-88692583D01*
X96087753Y-88685142D01*
X96076127Y-88676519D01*
X96065402Y-88666798D01*
X96055681Y-88656073D01*
X96047058Y-88644447D01*
X96039617Y-88632031D01*
X96033428Y-88618946D01*
X96028551Y-88605317D01*
X96025034Y-88591276D01*
X96022910Y-88576958D01*
X96022200Y-88562500D01*
X96022200Y-88267500D01*
X96022910Y-88253042D01*
X96025034Y-88238724D01*
X96028551Y-88224683D01*
X96033428Y-88211054D01*
X96039617Y-88197969D01*
X96047058Y-88185553D01*
X96055681Y-88173927D01*
X96065402Y-88163202D01*
X96076127Y-88153481D01*
X96087753Y-88144858D01*
X96100169Y-88137417D01*
X96113254Y-88131228D01*
X96126883Y-88126351D01*
X96140924Y-88122834D01*
X96155242Y-88120710D01*
X96169700Y-88120000D01*
X96514700Y-88120000D01*
X96529158Y-88120710D01*
G37*
G36*
X96529158Y-89090710D02*
G01*
X96543476Y-89092834D01*
X96557517Y-89096351D01*
X96571146Y-89101228D01*
X96584231Y-89107417D01*
X96596647Y-89114858D01*
X96608273Y-89123481D01*
X96618998Y-89133202D01*
X96628719Y-89143927D01*
X96637342Y-89155553D01*
X96644783Y-89167969D01*
X96650972Y-89181054D01*
X96655849Y-89194683D01*
X96659366Y-89208724D01*
X96661490Y-89223042D01*
X96662200Y-89237500D01*
X96662200Y-89532500D01*
X96661490Y-89546958D01*
X96659366Y-89561276D01*
X96655849Y-89575317D01*
X96650972Y-89588946D01*
X96644783Y-89602031D01*
X96637342Y-89614447D01*
X96628719Y-89626073D01*
X96618998Y-89636798D01*
X96608273Y-89646519D01*
X96596647Y-89655142D01*
X96584231Y-89662583D01*
X96571146Y-89668772D01*
X96557517Y-89673649D01*
X96543476Y-89677166D01*
X96529158Y-89679290D01*
X96514700Y-89680000D01*
X96169700Y-89680000D01*
X96155242Y-89679290D01*
X96140924Y-89677166D01*
X96126883Y-89673649D01*
X96113254Y-89668772D01*
X96100169Y-89662583D01*
X96087753Y-89655142D01*
X96076127Y-89646519D01*
X96065402Y-89636798D01*
X96055681Y-89626073D01*
X96047058Y-89614447D01*
X96039617Y-89602031D01*
X96033428Y-89588946D01*
X96028551Y-89575317D01*
X96025034Y-89561276D01*
X96022910Y-89546958D01*
X96022200Y-89532500D01*
X96022200Y-89237500D01*
X96022910Y-89223042D01*
X96025034Y-89208724D01*
X96028551Y-89194683D01*
X96033428Y-89181054D01*
X96039617Y-89167969D01*
X96047058Y-89155553D01*
X96055681Y-89143927D01*
X96065402Y-89133202D01*
X96076127Y-89123481D01*
X96087753Y-89114858D01*
X96100169Y-89107417D01*
X96113254Y-89101228D01*
X96126883Y-89096351D01*
X96140924Y-89092834D01*
X96155242Y-89090710D01*
X96169700Y-89090000D01*
X96514700Y-89090000D01*
X96529158Y-89090710D01*
G37*
G36*
X99859703Y-79735722D02*
G01*
X99874264Y-79737882D01*
X99888543Y-79741459D01*
X99902403Y-79746418D01*
X99915710Y-79752712D01*
X99928336Y-79760280D01*
X99940159Y-79769048D01*
X99951066Y-79778934D01*
X99960952Y-79789841D01*
X99969720Y-79801664D01*
X99977288Y-79814290D01*
X99983582Y-79827597D01*
X99988541Y-79841457D01*
X99992118Y-79855736D01*
X99994278Y-79870297D01*
X99995000Y-79885000D01*
X99995000Y-81535000D01*
X99994278Y-81549703D01*
X99992118Y-81564264D01*
X99988541Y-81578543D01*
X99983582Y-81592403D01*
X99977288Y-81605710D01*
X99969720Y-81618336D01*
X99960952Y-81630159D01*
X99951066Y-81641066D01*
X99940159Y-81650952D01*
X99928336Y-81659720D01*
X99915710Y-81667288D01*
X99902403Y-81673582D01*
X99888543Y-81678541D01*
X99874264Y-81682118D01*
X99859703Y-81684278D01*
X99845000Y-81685000D01*
X99545000Y-81685000D01*
X99530297Y-81684278D01*
X99515736Y-81682118D01*
X99501457Y-81678541D01*
X99487597Y-81673582D01*
X99474290Y-81667288D01*
X99461664Y-81659720D01*
X99449841Y-81650952D01*
X99438934Y-81641066D01*
X99429048Y-81630159D01*
X99420280Y-81618336D01*
X99412712Y-81605710D01*
X99406418Y-81592403D01*
X99401459Y-81578543D01*
X99397882Y-81564264D01*
X99395722Y-81549703D01*
X99395000Y-81535000D01*
X99395000Y-79885000D01*
X99395722Y-79870297D01*
X99397882Y-79855736D01*
X99401459Y-79841457D01*
X99406418Y-79827597D01*
X99412712Y-79814290D01*
X99420280Y-79801664D01*
X99429048Y-79789841D01*
X99438934Y-79778934D01*
X99449841Y-79769048D01*
X99461664Y-79760280D01*
X99474290Y-79752712D01*
X99487597Y-79746418D01*
X99501457Y-79741459D01*
X99515736Y-79737882D01*
X99530297Y-79735722D01*
X99545000Y-79735000D01*
X99845000Y-79735000D01*
X99859703Y-79735722D01*
G37*
G36*
X98589703Y-79735722D02*
G01*
X98604264Y-79737882D01*
X98618543Y-79741459D01*
X98632403Y-79746418D01*
X98645710Y-79752712D01*
X98658336Y-79760280D01*
X98670159Y-79769048D01*
X98681066Y-79778934D01*
X98690952Y-79789841D01*
X98699720Y-79801664D01*
X98707288Y-79814290D01*
X98713582Y-79827597D01*
X98718541Y-79841457D01*
X98722118Y-79855736D01*
X98724278Y-79870297D01*
X98725000Y-79885000D01*
X98725000Y-81535000D01*
X98724278Y-81549703D01*
X98722118Y-81564264D01*
X98718541Y-81578543D01*
X98713582Y-81592403D01*
X98707288Y-81605710D01*
X98699720Y-81618336D01*
X98690952Y-81630159D01*
X98681066Y-81641066D01*
X98670159Y-81650952D01*
X98658336Y-81659720D01*
X98645710Y-81667288D01*
X98632403Y-81673582D01*
X98618543Y-81678541D01*
X98604264Y-81682118D01*
X98589703Y-81684278D01*
X98575000Y-81685000D01*
X98275000Y-81685000D01*
X98260297Y-81684278D01*
X98245736Y-81682118D01*
X98231457Y-81678541D01*
X98217597Y-81673582D01*
X98204290Y-81667288D01*
X98191664Y-81659720D01*
X98179841Y-81650952D01*
X98168934Y-81641066D01*
X98159048Y-81630159D01*
X98150280Y-81618336D01*
X98142712Y-81605710D01*
X98136418Y-81592403D01*
X98131459Y-81578543D01*
X98127882Y-81564264D01*
X98125722Y-81549703D01*
X98125000Y-81535000D01*
X98125000Y-79885000D01*
X98125722Y-79870297D01*
X98127882Y-79855736D01*
X98131459Y-79841457D01*
X98136418Y-79827597D01*
X98142712Y-79814290D01*
X98150280Y-79801664D01*
X98159048Y-79789841D01*
X98168934Y-79778934D01*
X98179841Y-79769048D01*
X98191664Y-79760280D01*
X98204290Y-79752712D01*
X98217597Y-79746418D01*
X98231457Y-79741459D01*
X98245736Y-79737882D01*
X98260297Y-79735722D01*
X98275000Y-79735000D01*
X98575000Y-79735000D01*
X98589703Y-79735722D01*
G37*
G36*
X97319703Y-79735722D02*
G01*
X97334264Y-79737882D01*
X97348543Y-79741459D01*
X97362403Y-79746418D01*
X97375710Y-79752712D01*
X97388336Y-79760280D01*
X97400159Y-79769048D01*
X97411066Y-79778934D01*
X97420952Y-79789841D01*
X97429720Y-79801664D01*
X97437288Y-79814290D01*
X97443582Y-79827597D01*
X97448541Y-79841457D01*
X97452118Y-79855736D01*
X97454278Y-79870297D01*
X97455000Y-79885000D01*
X97455000Y-81535000D01*
X97454278Y-81549703D01*
X97452118Y-81564264D01*
X97448541Y-81578543D01*
X97443582Y-81592403D01*
X97437288Y-81605710D01*
X97429720Y-81618336D01*
X97420952Y-81630159D01*
X97411066Y-81641066D01*
X97400159Y-81650952D01*
X97388336Y-81659720D01*
X97375710Y-81667288D01*
X97362403Y-81673582D01*
X97348543Y-81678541D01*
X97334264Y-81682118D01*
X97319703Y-81684278D01*
X97305000Y-81685000D01*
X97005000Y-81685000D01*
X96990297Y-81684278D01*
X96975736Y-81682118D01*
X96961457Y-81678541D01*
X96947597Y-81673582D01*
X96934290Y-81667288D01*
X96921664Y-81659720D01*
X96909841Y-81650952D01*
X96898934Y-81641066D01*
X96889048Y-81630159D01*
X96880280Y-81618336D01*
X96872712Y-81605710D01*
X96866418Y-81592403D01*
X96861459Y-81578543D01*
X96857882Y-81564264D01*
X96855722Y-81549703D01*
X96855000Y-81535000D01*
X96855000Y-79885000D01*
X96855722Y-79870297D01*
X96857882Y-79855736D01*
X96861459Y-79841457D01*
X96866418Y-79827597D01*
X96872712Y-79814290D01*
X96880280Y-79801664D01*
X96889048Y-79789841D01*
X96898934Y-79778934D01*
X96909841Y-79769048D01*
X96921664Y-79760280D01*
X96934290Y-79752712D01*
X96947597Y-79746418D01*
X96961457Y-79741459D01*
X96975736Y-79737882D01*
X96990297Y-79735722D01*
X97005000Y-79735000D01*
X97305000Y-79735000D01*
X97319703Y-79735722D01*
G37*
G36*
X96049703Y-79735722D02*
G01*
X96064264Y-79737882D01*
X96078543Y-79741459D01*
X96092403Y-79746418D01*
X96105710Y-79752712D01*
X96118336Y-79760280D01*
X96130159Y-79769048D01*
X96141066Y-79778934D01*
X96150952Y-79789841D01*
X96159720Y-79801664D01*
X96167288Y-79814290D01*
X96173582Y-79827597D01*
X96178541Y-79841457D01*
X96182118Y-79855736D01*
X96184278Y-79870297D01*
X96185000Y-79885000D01*
X96185000Y-81535000D01*
X96184278Y-81549703D01*
X96182118Y-81564264D01*
X96178541Y-81578543D01*
X96173582Y-81592403D01*
X96167288Y-81605710D01*
X96159720Y-81618336D01*
X96150952Y-81630159D01*
X96141066Y-81641066D01*
X96130159Y-81650952D01*
X96118336Y-81659720D01*
X96105710Y-81667288D01*
X96092403Y-81673582D01*
X96078543Y-81678541D01*
X96064264Y-81682118D01*
X96049703Y-81684278D01*
X96035000Y-81685000D01*
X95735000Y-81685000D01*
X95720297Y-81684278D01*
X95705736Y-81682118D01*
X95691457Y-81678541D01*
X95677597Y-81673582D01*
X95664290Y-81667288D01*
X95651664Y-81659720D01*
X95639841Y-81650952D01*
X95628934Y-81641066D01*
X95619048Y-81630159D01*
X95610280Y-81618336D01*
X95602712Y-81605710D01*
X95596418Y-81592403D01*
X95591459Y-81578543D01*
X95587882Y-81564264D01*
X95585722Y-81549703D01*
X95585000Y-81535000D01*
X95585000Y-79885000D01*
X95585722Y-79870297D01*
X95587882Y-79855736D01*
X95591459Y-79841457D01*
X95596418Y-79827597D01*
X95602712Y-79814290D01*
X95610280Y-79801664D01*
X95619048Y-79789841D01*
X95628934Y-79778934D01*
X95639841Y-79769048D01*
X95651664Y-79760280D01*
X95664290Y-79752712D01*
X95677597Y-79746418D01*
X95691457Y-79741459D01*
X95705736Y-79737882D01*
X95720297Y-79735722D01*
X95735000Y-79735000D01*
X96035000Y-79735000D01*
X96049703Y-79735722D01*
G37*
G36*
X96049703Y-84685722D02*
G01*
X96064264Y-84687882D01*
X96078543Y-84691459D01*
X96092403Y-84696418D01*
X96105710Y-84702712D01*
X96118336Y-84710280D01*
X96130159Y-84719048D01*
X96141066Y-84728934D01*
X96150952Y-84739841D01*
X96159720Y-84751664D01*
X96167288Y-84764290D01*
X96173582Y-84777597D01*
X96178541Y-84791457D01*
X96182118Y-84805736D01*
X96184278Y-84820297D01*
X96185000Y-84835000D01*
X96185000Y-86485000D01*
X96184278Y-86499703D01*
X96182118Y-86514264D01*
X96178541Y-86528543D01*
X96173582Y-86542403D01*
X96167288Y-86555710D01*
X96159720Y-86568336D01*
X96150952Y-86580159D01*
X96141066Y-86591066D01*
X96130159Y-86600952D01*
X96118336Y-86609720D01*
X96105710Y-86617288D01*
X96092403Y-86623582D01*
X96078543Y-86628541D01*
X96064264Y-86632118D01*
X96049703Y-86634278D01*
X96035000Y-86635000D01*
X95735000Y-86635000D01*
X95720297Y-86634278D01*
X95705736Y-86632118D01*
X95691457Y-86628541D01*
X95677597Y-86623582D01*
X95664290Y-86617288D01*
X95651664Y-86609720D01*
X95639841Y-86600952D01*
X95628934Y-86591066D01*
X95619048Y-86580159D01*
X95610280Y-86568336D01*
X95602712Y-86555710D01*
X95596418Y-86542403D01*
X95591459Y-86528543D01*
X95587882Y-86514264D01*
X95585722Y-86499703D01*
X95585000Y-86485000D01*
X95585000Y-84835000D01*
X95585722Y-84820297D01*
X95587882Y-84805736D01*
X95591459Y-84791457D01*
X95596418Y-84777597D01*
X95602712Y-84764290D01*
X95610280Y-84751664D01*
X95619048Y-84739841D01*
X95628934Y-84728934D01*
X95639841Y-84719048D01*
X95651664Y-84710280D01*
X95664290Y-84702712D01*
X95677597Y-84696418D01*
X95691457Y-84691459D01*
X95705736Y-84687882D01*
X95720297Y-84685722D01*
X95735000Y-84685000D01*
X96035000Y-84685000D01*
X96049703Y-84685722D01*
G37*
G36*
X97319703Y-84685722D02*
G01*
X97334264Y-84687882D01*
X97348543Y-84691459D01*
X97362403Y-84696418D01*
X97375710Y-84702712D01*
X97388336Y-84710280D01*
X97400159Y-84719048D01*
X97411066Y-84728934D01*
X97420952Y-84739841D01*
X97429720Y-84751664D01*
X97437288Y-84764290D01*
X97443582Y-84777597D01*
X97448541Y-84791457D01*
X97452118Y-84805736D01*
X97454278Y-84820297D01*
X97455000Y-84835000D01*
X97455000Y-86485000D01*
X97454278Y-86499703D01*
X97452118Y-86514264D01*
X97448541Y-86528543D01*
X97443582Y-86542403D01*
X97437288Y-86555710D01*
X97429720Y-86568336D01*
X97420952Y-86580159D01*
X97411066Y-86591066D01*
X97400159Y-86600952D01*
X97388336Y-86609720D01*
X97375710Y-86617288D01*
X97362403Y-86623582D01*
X97348543Y-86628541D01*
X97334264Y-86632118D01*
X97319703Y-86634278D01*
X97305000Y-86635000D01*
X97005000Y-86635000D01*
X96990297Y-86634278D01*
X96975736Y-86632118D01*
X96961457Y-86628541D01*
X96947597Y-86623582D01*
X96934290Y-86617288D01*
X96921664Y-86609720D01*
X96909841Y-86600952D01*
X96898934Y-86591066D01*
X96889048Y-86580159D01*
X96880280Y-86568336D01*
X96872712Y-86555710D01*
X96866418Y-86542403D01*
X96861459Y-86528543D01*
X96857882Y-86514264D01*
X96855722Y-86499703D01*
X96855000Y-86485000D01*
X96855000Y-84835000D01*
X96855722Y-84820297D01*
X96857882Y-84805736D01*
X96861459Y-84791457D01*
X96866418Y-84777597D01*
X96872712Y-84764290D01*
X96880280Y-84751664D01*
X96889048Y-84739841D01*
X96898934Y-84728934D01*
X96909841Y-84719048D01*
X96921664Y-84710280D01*
X96934290Y-84702712D01*
X96947597Y-84696418D01*
X96961457Y-84691459D01*
X96975736Y-84687882D01*
X96990297Y-84685722D01*
X97005000Y-84685000D01*
X97305000Y-84685000D01*
X97319703Y-84685722D01*
G37*
G36*
X98589703Y-84685722D02*
G01*
X98604264Y-84687882D01*
X98618543Y-84691459D01*
X98632403Y-84696418D01*
X98645710Y-84702712D01*
X98658336Y-84710280D01*
X98670159Y-84719048D01*
X98681066Y-84728934D01*
X98690952Y-84739841D01*
X98699720Y-84751664D01*
X98707288Y-84764290D01*
X98713582Y-84777597D01*
X98718541Y-84791457D01*
X98722118Y-84805736D01*
X98724278Y-84820297D01*
X98725000Y-84835000D01*
X98725000Y-86485000D01*
X98724278Y-86499703D01*
X98722118Y-86514264D01*
X98718541Y-86528543D01*
X98713582Y-86542403D01*
X98707288Y-86555710D01*
X98699720Y-86568336D01*
X98690952Y-86580159D01*
X98681066Y-86591066D01*
X98670159Y-86600952D01*
X98658336Y-86609720D01*
X98645710Y-86617288D01*
X98632403Y-86623582D01*
X98618543Y-86628541D01*
X98604264Y-86632118D01*
X98589703Y-86634278D01*
X98575000Y-86635000D01*
X98275000Y-86635000D01*
X98260297Y-86634278D01*
X98245736Y-86632118D01*
X98231457Y-86628541D01*
X98217597Y-86623582D01*
X98204290Y-86617288D01*
X98191664Y-86609720D01*
X98179841Y-86600952D01*
X98168934Y-86591066D01*
X98159048Y-86580159D01*
X98150280Y-86568336D01*
X98142712Y-86555710D01*
X98136418Y-86542403D01*
X98131459Y-86528543D01*
X98127882Y-86514264D01*
X98125722Y-86499703D01*
X98125000Y-86485000D01*
X98125000Y-84835000D01*
X98125722Y-84820297D01*
X98127882Y-84805736D01*
X98131459Y-84791457D01*
X98136418Y-84777597D01*
X98142712Y-84764290D01*
X98150280Y-84751664D01*
X98159048Y-84739841D01*
X98168934Y-84728934D01*
X98179841Y-84719048D01*
X98191664Y-84710280D01*
X98204290Y-84702712D01*
X98217597Y-84696418D01*
X98231457Y-84691459D01*
X98245736Y-84687882D01*
X98260297Y-84685722D01*
X98275000Y-84685000D01*
X98575000Y-84685000D01*
X98589703Y-84685722D01*
G37*
G36*
X99859703Y-84685722D02*
G01*
X99874264Y-84687882D01*
X99888543Y-84691459D01*
X99902403Y-84696418D01*
X99915710Y-84702712D01*
X99928336Y-84710280D01*
X99940159Y-84719048D01*
X99951066Y-84728934D01*
X99960952Y-84739841D01*
X99969720Y-84751664D01*
X99977288Y-84764290D01*
X99983582Y-84777597D01*
X99988541Y-84791457D01*
X99992118Y-84805736D01*
X99994278Y-84820297D01*
X99995000Y-84835000D01*
X99995000Y-86485000D01*
X99994278Y-86499703D01*
X99992118Y-86514264D01*
X99988541Y-86528543D01*
X99983582Y-86542403D01*
X99977288Y-86555710D01*
X99969720Y-86568336D01*
X99960952Y-86580159D01*
X99951066Y-86591066D01*
X99940159Y-86600952D01*
X99928336Y-86609720D01*
X99915710Y-86617288D01*
X99902403Y-86623582D01*
X99888543Y-86628541D01*
X99874264Y-86632118D01*
X99859703Y-86634278D01*
X99845000Y-86635000D01*
X99545000Y-86635000D01*
X99530297Y-86634278D01*
X99515736Y-86632118D01*
X99501457Y-86628541D01*
X99487597Y-86623582D01*
X99474290Y-86617288D01*
X99461664Y-86609720D01*
X99449841Y-86600952D01*
X99438934Y-86591066D01*
X99429048Y-86580159D01*
X99420280Y-86568336D01*
X99412712Y-86555710D01*
X99406418Y-86542403D01*
X99401459Y-86528543D01*
X99397882Y-86514264D01*
X99395722Y-86499703D01*
X99395000Y-86485000D01*
X99395000Y-84835000D01*
X99395722Y-84820297D01*
X99397882Y-84805736D01*
X99401459Y-84791457D01*
X99406418Y-84777597D01*
X99412712Y-84764290D01*
X99420280Y-84751664D01*
X99429048Y-84739841D01*
X99438934Y-84728934D01*
X99449841Y-84719048D01*
X99461664Y-84710280D01*
X99474290Y-84702712D01*
X99487597Y-84696418D01*
X99501457Y-84691459D01*
X99515736Y-84687882D01*
X99530297Y-84685722D01*
X99545000Y-84685000D01*
X99845000Y-84685000D01*
X99859703Y-84685722D01*
G37*
D28*
X108905000Y-71140000D03*
X108905000Y-71640000D03*
X108905000Y-72140000D03*
X108905000Y-72640000D03*
X108905000Y-73140000D03*
X108905000Y-73640000D03*
X110805000Y-73640000D03*
X110805000Y-73140000D03*
X110805000Y-72640000D03*
X110805000Y-72140000D03*
X110805000Y-71640000D03*
X110805000Y-71140000D03*
D29*
X109855000Y-73075000D03*
X109855000Y-71705000D03*
D27*
G36*
X111438958Y-75732710D02*
G01*
X111453276Y-75734834D01*
X111467317Y-75738351D01*
X111480946Y-75743228D01*
X111494031Y-75749417D01*
X111506447Y-75756858D01*
X111518073Y-75765481D01*
X111528798Y-75775202D01*
X111538519Y-75785927D01*
X111547142Y-75797553D01*
X111554583Y-75809969D01*
X111560772Y-75823054D01*
X111565649Y-75836683D01*
X111569166Y-75850724D01*
X111571290Y-75865042D01*
X111572000Y-75879500D01*
X111572000Y-76174500D01*
X111571290Y-76188958D01*
X111569166Y-76203276D01*
X111565649Y-76217317D01*
X111560772Y-76230946D01*
X111554583Y-76244031D01*
X111547142Y-76256447D01*
X111538519Y-76268073D01*
X111528798Y-76278798D01*
X111518073Y-76288519D01*
X111506447Y-76297142D01*
X111494031Y-76304583D01*
X111480946Y-76310772D01*
X111467317Y-76315649D01*
X111453276Y-76319166D01*
X111438958Y-76321290D01*
X111424500Y-76322000D01*
X111079500Y-76322000D01*
X111065042Y-76321290D01*
X111050724Y-76319166D01*
X111036683Y-76315649D01*
X111023054Y-76310772D01*
X111009969Y-76304583D01*
X110997553Y-76297142D01*
X110985927Y-76288519D01*
X110975202Y-76278798D01*
X110965481Y-76268073D01*
X110956858Y-76256447D01*
X110949417Y-76244031D01*
X110943228Y-76230946D01*
X110938351Y-76217317D01*
X110934834Y-76203276D01*
X110932710Y-76188958D01*
X110932000Y-76174500D01*
X110932000Y-75879500D01*
X110932710Y-75865042D01*
X110934834Y-75850724D01*
X110938351Y-75836683D01*
X110943228Y-75823054D01*
X110949417Y-75809969D01*
X110956858Y-75797553D01*
X110965481Y-75785927D01*
X110975202Y-75775202D01*
X110985927Y-75765481D01*
X110997553Y-75756858D01*
X111009969Y-75749417D01*
X111023054Y-75743228D01*
X111036683Y-75738351D01*
X111050724Y-75734834D01*
X111065042Y-75732710D01*
X111079500Y-75732000D01*
X111424500Y-75732000D01*
X111438958Y-75732710D01*
G37*
G36*
X111438958Y-74762710D02*
G01*
X111453276Y-74764834D01*
X111467317Y-74768351D01*
X111480946Y-74773228D01*
X111494031Y-74779417D01*
X111506447Y-74786858D01*
X111518073Y-74795481D01*
X111528798Y-74805202D01*
X111538519Y-74815927D01*
X111547142Y-74827553D01*
X111554583Y-74839969D01*
X111560772Y-74853054D01*
X111565649Y-74866683D01*
X111569166Y-74880724D01*
X111571290Y-74895042D01*
X111572000Y-74909500D01*
X111572000Y-75204500D01*
X111571290Y-75218958D01*
X111569166Y-75233276D01*
X111565649Y-75247317D01*
X111560772Y-75260946D01*
X111554583Y-75274031D01*
X111547142Y-75286447D01*
X111538519Y-75298073D01*
X111528798Y-75308798D01*
X111518073Y-75318519D01*
X111506447Y-75327142D01*
X111494031Y-75334583D01*
X111480946Y-75340772D01*
X111467317Y-75345649D01*
X111453276Y-75349166D01*
X111438958Y-75351290D01*
X111424500Y-75352000D01*
X111079500Y-75352000D01*
X111065042Y-75351290D01*
X111050724Y-75349166D01*
X111036683Y-75345649D01*
X111023054Y-75340772D01*
X111009969Y-75334583D01*
X110997553Y-75327142D01*
X110985927Y-75318519D01*
X110975202Y-75308798D01*
X110965481Y-75298073D01*
X110956858Y-75286447D01*
X110949417Y-75274031D01*
X110943228Y-75260946D01*
X110938351Y-75247317D01*
X110934834Y-75233276D01*
X110932710Y-75218958D01*
X110932000Y-75204500D01*
X110932000Y-74909500D01*
X110932710Y-74895042D01*
X110934834Y-74880724D01*
X110938351Y-74866683D01*
X110943228Y-74853054D01*
X110949417Y-74839969D01*
X110956858Y-74827553D01*
X110965481Y-74815927D01*
X110975202Y-74805202D01*
X110985927Y-74795481D01*
X110997553Y-74786858D01*
X111009969Y-74779417D01*
X111023054Y-74773228D01*
X111036683Y-74768351D01*
X111050724Y-74764834D01*
X111065042Y-74762710D01*
X111079500Y-74762000D01*
X111424500Y-74762000D01*
X111438958Y-74762710D01*
G37*
M02*
